<?xml version="1.0" encoding="UTF-8" standalone="no"?>
<!-- Created with Inkscape (http://www.inkscape.org/) -->

<svg
   xmlns:dc="http://purl.org/dc/elements/1.1/"
   xmlns:cc="http://creativecommons.org/ns#"
   xmlns:rdf="http://www.w3.org/1999/02/22-rdf-syntax-ns#"
   xmlns:svg="http://www.w3.org/2000/svg"
   xmlns="http://www.w3.org/2000/svg"
   xmlns:sodipodi="http://sodipodi.sourceforge.net/DTD/sodipodi-0.dtd"
   xmlns:inkscape="http://www.inkscape.org/namespaces/inkscape"
   width="1200"
   height="630"
   viewBox="0 0 317.49998 166.6875"
   version="1.1"
   id="svg313"
   inkscape:version="0.92.2 (5c3e80d, 2017-08-06)"
   sodipodi:docname="Personal_Logo_Link_Preview.svg"
   inkscape:export-filename="C:\Users\camas\Documents\NewPortfolio\Images\Personal_Logo.png"
   inkscape:export-xdpi="96"
   inkscape:export-ydpi="96">
  <defs
     id="defs307" />
  <sodipodi:namedview
     id="base"
     pagecolor="#ffffff"
     bordercolor="#666666"
     borderopacity="1.0"
     inkscape:pageopacity="0.0"
     inkscape:pageshadow="2"
     inkscape:zoom="0.7"
     inkscape:cx="441.76788"
     inkscape:cy="295.88754"
     inkscape:document-units="mm"
     inkscape:current-layer="layer1"
     showgrid="false"
     fit-margin-top="0"
     fit-margin-left="0"
     fit-margin-right="0"
     fit-margin-bottom="0"
     inkscape:window-width="1920"
     inkscape:window-height="986"
     inkscape:window-x="-11"
     inkscape:window-y="-11"
     inkscape:window-maximized="1"
     inkscape:object-paths="true"
     units="px"
     inkscape:snap-page="true" />
  <metadata
     id="metadata310">
    <rdf:RDF>
      <cc:Work
         rdf:about="">
        <dc:format>image/svg+xml</dc:format>
        <dc:type
           rdf:resource="http://purl.org/dc/dcmitype/StillImage" />
        <dc:title></dc:title>
      </cc:Work>
    </rdf:RDF>
  </metadata>
  <g
     inkscape:label="Layer 1"
     inkscape:groupmode="layer"
     id="layer1"
     transform="translate(-48.769803,-20.248626)">
    <rect
       style="opacity:1;fill:#ffffff;fill-opacity:1;fill-rule:evenodd;stroke:none;stroke-width:1.79999995;stroke-linecap:butt;stroke-linejoin:round;stroke-miterlimit:4;stroke-dasharray:none;stroke-dashoffset:0;stroke-opacity:0.97142855;paint-order:fill markers stroke"
       id="rect858"
       width="317.5"
       height="166.6875"
       x="48.769802"
       y="20.248627" />
    <g
       id="g856">
      <path
         style="color:#000000;font-style:normal;font-variant:normal;font-weight:normal;font-stretch:normal;font-size:medium;line-height:normal;font-family:sans-serif;font-variant-ligatures:normal;font-variant-position:normal;font-variant-caps:normal;font-variant-numeric:normal;font-variant-alternates:normal;font-feature-settings:normal;text-indent:0;text-align:start;text-decoration:none;text-decoration-line:none;text-decoration-style:solid;text-decoration-color:#000000;letter-spacing:normal;word-spacing:normal;text-transform:none;writing-mode:lr-tb;direction:ltr;text-orientation:mixed;dominant-baseline:auto;baseline-shift:baseline;text-anchor:start;white-space:normal;shape-padding:0;clip-rule:nonzero;display:inline;overflow:visible;visibility:visible;opacity:1;isolation:auto;mix-blend-mode:normal;color-interpolation:sRGB;color-interpolation-filters:linearRGB;solid-color:#000000;solid-opacity:1;vector-effect:none;fill:#3771c8;fill-opacity:1;fill-rule:evenodd;stroke:none;stroke-width:9.57273102;stroke-linecap:butt;stroke-linejoin:round;stroke-miterlimit:4;stroke-dasharray:none;stroke-dashoffset:0;stroke-opacity:1;paint-order:fill markers stroke;color-rendering:auto;image-rendering:auto;shape-rendering:auto;text-rendering:auto;enable-background:accumulate"
         d="m 187.78139,44.462132 c -3.69589,0 -7.39122,1.765248 -9.42988,5.294438 a 4.7868442,4.7868442 0 0 0 0,9.46e-4 l -24.66557,42.72174 a 4.7868442,4.7868442 0 0 0 0,9.46e-4 c -1.84954,3.205584 -1.94155,7.149457 -0.24402,10.438048 0,2.5e-4 0,4.7e-4 0,9.5e-4 a 4.7868442,4.7868442 0 0 0 0.73734,1.04411 c 2.0081,2.96245 5.3068,4.84975 8.93675,4.85074 h 17.35113 l 5.52716,-9.573367 H 163.117 c -0.50198,-4.73e-4 -0.93957,-0.267022 -1.16977,-0.713112 -0.20858,-0.403962 -0.19765,-0.869368 0.0293,-1.263165 l 24.66463,-42.719785 v -9.46e-4 c 0.31114,-0.537867 0.72564,-0.807742 1.1402,-0.807723 v 2.51e-4 c 0.4146,2.4e-5 0.82916,0.269298 1.14015,0.807476 l 11.43941,19.81339 5.52669,-9.572629 -8.67594,-15.026952 a 4.7868442,4.7868442 0 0 0 0,-9.46e-4 c -2.03834,-3.52938 -5.73423,-5.294027 -9.43007,-5.294202 z"
         id="path961"
         inkscape:connector-curvature="0" />
      <path
         sodipodi:nodetypes="cccccccc"
         inkscape:connector-curvature="0"
         id="path963"
         d="m 189.51142,120.61743 c 1.17034,2.2677 3.50851,3.69258 6.06041,3.69327 l 55.13576,-9e-5 c 5.25042,-10e-4 8.53138,-5.6849 5.90681,-10.23228 L 229.04699,66.330187 c -2.62584,-4.546641 -9.18842,-4.54702 -11.81479,-4.74e-4 l -27.56798,47.748927 c -1.16064,2.01158 -1.21821,4.47541 -0.1528,6.539 z"
         style="color:#000000;font-style:normal;font-variant:normal;font-weight:normal;font-stretch:normal;font-size:medium;line-height:normal;font-family:sans-serif;font-variant-ligatures:normal;font-variant-position:normal;font-variant-caps:normal;font-variant-numeric:normal;font-variant-alternates:normal;font-feature-settings:normal;text-indent:0;text-align:start;text-decoration:none;text-decoration-line:none;text-decoration-style:solid;text-decoration-color:#000000;letter-spacing:normal;word-spacing:normal;text-transform:none;writing-mode:lr-tb;direction:ltr;text-orientation:mixed;dominant-baseline:auto;baseline-shift:baseline;text-anchor:start;white-space:normal;shape-padding:0;clip-rule:nonzero;display:inline;overflow:visible;visibility:visible;opacity:1;isolation:auto;mix-blend-mode:normal;color-interpolation:sRGB;color-interpolation-filters:linearRGB;solid-color:#000000;solid-opacity:1;vector-effect:none;fill:none;fill-opacity:1;fill-rule:evenodd;stroke:#000000;stroke-width:10.69904613;stroke-linecap:butt;stroke-linejoin:round;stroke-miterlimit:4;stroke-dasharray:none;stroke-dashoffset:0;stroke-opacity:1;paint-order:fill markers stroke;color-rendering:auto;image-rendering:auto;shape-rendering:auto;text-rendering:auto;enable-background:accumulate" />
      <g
         id="flowRoot973"
         style="font-style:normal;font-variant:normal;font-weight:normal;font-stretch:normal;font-size:40px;line-height:1.25;font-family:Montserrat;-inkscape-font-specification:Montserrat;font-variant-ligatures:normal;font-variant-caps:normal;font-variant-numeric:normal;font-feature-settings:normal;text-align:start;letter-spacing:0px;word-spacing:1.84000003px;writing-mode:lr-tb;text-anchor:start;fill:#000000;fill-opacity:1;stroke:none"
         transform="matrix(0.54937382,0,0,0.54937382,-104.26362,102.95462)"
         aria-label="Carl Mastny">
        <path
           inkscape:connector-curvature="0"
           id="path22"
           style="font-style:normal;font-variant:normal;font-weight:bold;font-stretch:normal;font-family:Montserrat;-inkscape-font-specification:'Montserrat Bold';letter-spacing:0px;fill:#000000"
           d="m 458.86258,101.19296 q -4.28,0 -7.76,-1.84 -3.44,-1.88 -5.44,-5.16 -1.96,-3.32 -1.96,-7.48 0,-4.16 1.96,-7.44 2,-3.32 5.44,-5.16 3.48,-1.88 7.8,-1.88 3.64,0 6.56,1.28 2.96,1.28 4.96,3.68 l -4.16,3.84 q -2.84,-3.28 -7.04,-3.28 -2.6,0 -4.64,1.16 -2.04,1.12 -3.2,3.16 -1.12,2.04 -1.12,4.64 0,2.6 1.12,4.64 1.16,2.04 3.2,3.2 2.04,1.12 4.64,1.12 4.2,0 7.04,-3.32 l 4.16,3.84 q -2,2.44 -4.96,3.72 -2.96,1.28 -6.6,1.28 z" />
        <path
           inkscape:connector-curvature="0"
           id="path24"
           style="font-style:normal;font-variant:normal;font-weight:bold;font-stretch:normal;font-family:Montserrat;-inkscape-font-specification:'Montserrat Bold';letter-spacing:0px;fill:#000000"
           d="m 482.8432,78.87296 q 5,0 7.68,2.4 2.68,2.36 2.68,7.16 v 12.28 h -5.84 v -2.68 q -1.76,3 -6.56,3 -2.48,0 -4.32,-0.84 -1.8,-0.84 -2.76,-2.32 -0.96,-1.48 -0.96,-3.36 0,-3 2.24,-4.72 2.28,-1.72 7,-1.72 h 4.96 q 0,-2.04 -1.24,-3.12 -1.24,-1.12 -3.72,-1.12 -1.72,0 -3.4,0.56 -1.64,0.52 -2.8,1.44 l -2.24,-4.36 q 1.76,-1.24 4.2,-1.92 2.48,-0.68 5.08,-0.68 z m -0.48,17.96 q 1.6,0 2.84,-0.72 1.24,-0.76 1.76,-2.2 v -2.2 h -4.28 q -3.84,0 -3.84,2.52 0,1.2 0.92,1.92 0.96,0.68 2.6,0.68 z" />
        <path
           inkscape:connector-curvature="0"
           id="path26"
           style="font-style:normal;font-variant:normal;font-weight:bold;font-stretch:normal;font-family:Montserrat;-inkscape-font-specification:'Montserrat Bold';letter-spacing:0px;fill:#000000"
           d="m 504.8107,82.03296 q 1.12,-1.56 3,-2.36 1.92,-0.8 4.4,-0.8 v 5.76 q -1.04,-0.08 -1.4,-0.08 -2.68,0 -4.2,1.52 -1.52,1.48 -1.52,4.48 v 10.16 h -6.24 v -21.52 h 5.96 z" />
        <path
           inkscape:connector-curvature="0"
           id="path28"
           style="font-style:normal;font-variant:normal;font-weight:bold;font-stretch:normal;font-family:Montserrat;-inkscape-font-specification:'Montserrat Bold';letter-spacing:0px;fill:#000000"
           d="m 515.96008,71.03296 h 6.24 v 29.68 h -6.24 z" />
        <path
           inkscape:connector-curvature="0"
           id="path30"
           style="font-style:normal;font-variant:normal;font-weight:bold;font-stretch:normal;font-family:Montserrat;-inkscape-font-specification:'Montserrat Bold';letter-spacing:0px;fill:#000000"
           d="m 567.07945,100.71296 -0.04,-16.8 -8.24,13.84 h -2.92 l -8.2,-13.48 v 16.44 h -6.08 v -28 h 5.36 l 10.48,17.4 10.32,-17.4 h 5.32 l 0.08,28 z" />
        <path
           inkscape:connector-curvature="0"
           id="path32"
           style="font-style:normal;font-variant:normal;font-weight:bold;font-stretch:normal;font-family:Montserrat;-inkscape-font-specification:'Montserrat Bold';letter-spacing:0px;fill:#000000"
           d="m 588.04257,78.87296 q 5,0 7.68,2.4 2.68,2.36 2.68,7.16 v 12.28 h -5.84 v -2.68 q -1.76,3 -6.56,3 -2.48,0 -4.32,-0.84 -1.8,-0.84 -2.76,-2.32 -0.96,-1.48 -0.96,-3.36 0,-3 2.24,-4.72 2.28,-1.72 7,-1.72 h 4.96 q 0,-2.04 -1.24,-3.12 -1.24,-1.12 -3.72,-1.12 -1.72,0 -3.4,0.56 -1.64,0.52 -2.8,1.44 l -2.24,-4.36 q 1.76,-1.24 4.2,-1.92 2.48,-0.68 5.08,-0.68 z m -0.48,17.96 q 1.6,0 2.84,-0.72 1.24,-0.76 1.76,-2.2 v -2.2 h -4.28 q -3.84,0 -3.84,2.52 0,1.2 0.92,1.92 0.96,0.68 2.6,0.68 z" />
        <path
           inkscape:connector-curvature="0"
           id="path34"
           style="font-style:normal;font-variant:normal;font-weight:bold;font-stretch:normal;font-family:Montserrat;-inkscape-font-specification:'Montserrat Bold';letter-spacing:0px;fill:#000000"
           d="m 611.29007,101.03296 q -2.68,0 -5.24,-0.64 -2.56,-0.68 -4.08,-1.68 l 2.08,-4.48 q 1.44,0.92 3.48,1.52 2.04,0.56 4,0.56 3.96,0 3.96,-1.96 0,-0.92 -1.08,-1.32 -1.08,-0.4 -3.32,-0.68 -2.64,-0.4 -4.36,-0.92 -1.72,-0.52 -3,-1.84 -1.24,-1.32 -1.24,-3.76 0,-2.04 1.16,-3.6 1.2,-1.6 3.44,-2.48 2.28,-0.88 5.36,-0.88 2.28,0 4.52,0.52 2.28,0.48 3.76,1.36 l -2.08,4.44 q -2.84,-1.6 -6.2,-1.6 -2,0 -3,0.56 -1,0.56 -1,1.44 0,1 1.08,1.4 1.08,0.4 3.44,0.76 2.64,0.44 4.32,0.96 1.68,0.48 2.92,1.8 1.24,1.32 1.24,3.68 0,2 -1.2,3.56 -1.2,1.56 -3.52,2.44 -2.28,0.84 -5.44,0.84 z" />
        <path
           inkscape:connector-curvature="0"
           id="path36"
           style="font-style:normal;font-variant:normal;font-weight:bold;font-stretch:normal;font-family:Montserrat;-inkscape-font-specification:'Montserrat Bold';letter-spacing:0px;fill:#000000"
           d="m 639.18007,99.67296 q -0.92,0.68 -2.28,1.04 -1.32,0.32 -2.8,0.32 -3.84,0 -5.96,-1.96 -2.08,-1.96 -2.08,-5.76 v -8.84 h -3.32 v -4.8 h 3.32 v -5.24 h 6.24 v 5.24 h 5.36 v 4.8 h -5.36 v 8.76 q 0,1.36 0.68,2.12 0.72,0.72 2,0.72 1.48,0 2.52,-0.8 z" />
        <path
           inkscape:connector-curvature="0"
           id="path38"
           style="font-style:normal;font-variant:normal;font-weight:bold;font-stretch:normal;font-family:Montserrat;-inkscape-font-specification:'Montserrat Bold';letter-spacing:0px;fill:#000000"
           d="m 655.80195,78.87296 q 4,0 6.44,2.4 2.48,2.4 2.48,7.12 v 12.32 h -6.24 v -11.36 q 0,-2.56 -1.12,-3.8 -1.12,-1.28 -3.24,-1.28 -2.36,0 -3.76,1.48 -1.4,1.44 -1.4,4.32 v 10.64 h -6.24 v -21.52 h 5.96 v 2.52 q 1.24,-1.36 3.08,-2.08 1.84,-0.76 4.04,-0.76 z" />
        <path
           inkscape:connector-curvature="0"
           id="path40"
           style="font-style:normal;font-variant:normal;font-weight:bold;font-stretch:normal;font-family:Montserrat;-inkscape-font-specification:'Montserrat Bold';letter-spacing:0px;fill:#000000"
           d="m 691.34757,79.19296 -9.72,22.84 q -1.48,3.72 -3.68,5.24 -2.16,1.52 -5.24,1.52 -1.68,0 -3.32,-0.52 -1.64,-0.52 -2.68,-1.44 l 2.28,-4.44 q 0.72,0.64 1.64,1 0.96,0.36 1.88,0.36 1.28,0 2.08,-0.64 0.8,-0.6 1.44,-2.04 l 0.08,-0.2 -9.32,-21.68 h 6.44 l 6.04,14.6 6.08,-14.6 z" />
      </g>
    </g>
  </g>
</svg>
