<?xml version="1.0" encoding="UTF-8" standalone="no"?>
<!-- Created with Inkscape (http://www.inkscape.org/) -->

<svg
   xmlns:dc="http://purl.org/dc/elements/1.1/"
   xmlns:cc="http://creativecommons.org/ns#"
   xmlns:rdf="http://www.w3.org/1999/02/22-rdf-syntax-ns#"
   xmlns:svg="http://www.w3.org/2000/svg"
   xmlns="http://www.w3.org/2000/svg"
   xmlns:sodipodi="http://sodipodi.sourceforge.net/DTD/sodipodi-0.dtd"
   xmlns:inkscape="http://www.inkscape.org/namespaces/inkscape"
   width="440.39746mm"
   height="396.09766mm"
   viewBox="0 0 440.39746 396.09766"
   version="1.1"
   id="svg1139"
   inkscape:version="0.92.2 (5c3e80d, 2017-08-06)"
   sodipodi:docname="BB_Logo_No_Text.svg">
  <defs
     id="defs1133" />
  <sodipodi:namedview
     id="base"
     pagecolor="#ffffff"
     bordercolor="#666666"
     borderopacity="1.0"
     inkscape:pageopacity="0.0"
     inkscape:pageshadow="2"
     inkscape:zoom="0.24748737"
     inkscape:cx="-530.1301"
     inkscape:cy="662.37838"
     inkscape:document-units="mm"
     inkscape:current-layer="layer1"
     showgrid="false"
     fit-margin-top="0"
     fit-margin-left="0"
     fit-margin-right="0"
     fit-margin-bottom="0"
     inkscape:window-width="1920"
     inkscape:window-height="986"
     inkscape:window-x="-11"
     inkscape:window-y="-11"
     inkscape:window-maximized="1" />
  <metadata
     id="metadata1136">
    <rdf:RDF>
      <cc:Work
         rdf:about="">
        <dc:format>image/svg+xml</dc:format>
        <dc:type
           rdf:resource="http://purl.org/dc/dcmitype/StillImage" />
        <dc:title></dc:title>
      </cc:Work>
    </rdf:RDF>
  </metadata>
  <g
     inkscape:label="Layer 1"
     inkscape:groupmode="layer"
     id="layer1"
     transform="translate(127.7104,235.99034)">
    <g
       id="g900"
       transform="translate(-1189.5704,-171.7665)">
      <g
         transform="translate(45.066)"
         id="g888">
        <path
           inkscape:connector-curvature="0"
           id="path882"
           d="m 1328.4671,-64.202283 a 79.344543,79.344543 0 0 0 -69.6159,45.04428 h 71.4659 v 0.03049 a 34.092657,34.092657 0 0 1 34.0832,33.260501 v 0.02842 a 34.092657,34.092657 0 0 1 -33.3028,34.857304 34.092657,34.092657 0 0 1 -0.7809,-0.02119 v 0.02997 h -19.7486 c 0.021,0.03484 0.042,0.0699 0.063,0.104905 0.1988,0.343268 0.5876,0.988502 0.7426,1.358572 0.136,0.324606 0.228,0.665922 0.3519,0.995288 0.3213,0.853239 0.7027,1.686491 0.9199,2.576587 0.2122,1.16914 0.4711,2.331362 0.5891,3.515547 0.026,0.263054 -0.01,0.530802 0.029,0.792716 0.047,0.347125 0.31,0.646097 0.2651,1.016992 0.064,0.614386 0.1123,1.008687 0.1406,1.64021 0.043,0.945372 -0.012,0.995588 0.075,1.919264 0.027,0.277691 0.097,0.550357 0.1127,0.828889 0.017,0.308753 -0.012,0.618435 -0.017,0.927592 -0.2127,1.751939 0.031,-0.02408 -0.3618,2.048971 -0.076,0.400754 -0.1137,0.807916 -0.1948,1.20768 -0.2082,1.026917 -0.5001,2.060625 -0.9829,2.993615 -0.305,0.957881 -0.5539,1.900938 -1.0061,2.801379 -0.148,0.294643 -0.3452,0.561906 -0.5219,0.840258 -0.6189,0.974686 -1.213,1.949977 -2.0485,2.759004 -0.2979,0.313502 -0.5794,0.643728 -0.894,0.940512 -1.339,1.263287 -3.0084,2.0672 -4.6276,2.900082 -2.1993,0.610012 -0.5604,0.219733 -5.2612,0.371035 -0.7031,0.02262 -0.075,-0.06848 -0.7798,0.128675 -0.1604,0.04491 -0.6516,0.09953 -0.4857,0.115755 1.0138,0.09924 2.0353,0.09018 3.053,0.135393 -0.2016,0.07344 -0.3965,0.168696 -0.6046,0.220657 -0.6793,0.169574 -1.0562,0.134869 -1.7637,0.19327 -1.0862,0.08965 -2.17,0.191569 -3.2613,0.211873 -1.7117,0.01222 -3.4234,0.03504 -5.1351,0.03669 -0.042,5.3e-5 -0.084,-5.29e-4 -0.1266,-5.29e-4 a 79.344543,79.344543 0 0 0 43.2955,11.835971 79.344543,79.344543 0 0 0 77.5074,-81.12373 v -0.06666 a 79.344543,79.344543 0 0 0 -81.1714,-77.456238 z"
           style="opacity:1;fill:#782121;fill-opacity:1;stroke:none;stroke-width:15.49393749;stroke-linecap:butt;stroke-linejoin:miter;stroke-miterlimit:4;stroke-dasharray:none;stroke-dashoffset:0;stroke-opacity:1;paint-order:fill markers stroke" />
        <path
           sodipodi:nodetypes="csssscsccsccccscscccc"
           inkscape:connector-curvature="0"
           id="path884"
           d="m 1312.0666,48.276639 c -18.7985,0.438446 -37.125,4.601229 -53.998,12.054692 -16.8729,7.453463 -32.2921,18.197607 -45.2761,31.798778 -25.9679,27.202331 -40.068,63.605141 -39.1991,101.202271 0.8688,37.59735 16.6356,73.31012 43.8327,99.28387 27.197,25.97378 63.5971,40.08147 101.1946,39.22033 37.5975,-0.86109 73.3135,-16.62044 99.2928,-43.81204 25.9794,-27.1916 40.0947,-63.58869 39.2414,-101.18633 v -0.11886 c -0.8848,-37.59681 -16.6666,-73.30276 -43.8744,-99.264963 -27.2079,-25.962202 -63.6137,-40.054574 -101.2107,-39.177748 z m 1.0511,45.054096 c 53.4119,-1.245621 97.7236,41.037405 98.9805,94.449015 v 0.0811 c 0.582,25.64991 -9.0478,50.48076 -26.7714,69.03145 -17.7237,18.55069 -42.0899,29.30211 -67.7397,29.88965 -25.6499,0.5875 -50.483,-9.03708 -69.0374,-26.757 -18.5546,-17.71992 -29.311,-42.08405 -29.9038,-67.73388 -1.2342,-53.41218 41.0583,-97.71486 94.4702,-98.960365 v 0 z"
           style="opacity:1;fill:#782121;fill-opacity:1;stroke:none;stroke-width:6.80524206;stroke-linecap:butt;stroke-linejoin:miter;stroke-miterlimit:4;stroke-dasharray:none;stroke-dashoffset:0;stroke-opacity:1;paint-order:fill markers stroke" />
        <path
           sodipodi:nodetypes="ccccccccc"
           inkscape:connector-curvature="0"
           id="path886"
           d="m 1173.5557,-64.223836 v 45.06598 209.213436 h 45.066 V -19.157856 h 111.6955 v -45.06598 h -111.6955 z"
           style="opacity:1;fill:#782121;fill-opacity:1;stroke:none;stroke-width:13.56899929;stroke-linecap:butt;stroke-linejoin:miter;stroke-miterlimit:4;stroke-dasharray:none;stroke-dashoffset:0;stroke-opacity:1;paint-order:fill markers stroke" />
      </g>
      <g
         id="g898">
        <path
           style="opacity:1;fill:#000000;fill-opacity:1;stroke:none;stroke-width:15.49393749;stroke-linecap:butt;stroke-linejoin:miter;stroke-miterlimit:4;stroke-dasharray:none;stroke-dashoffset:0;stroke-opacity:1;paint-order:fill markers stroke"
           d="m 1216.7716,-64.202283 a 79.344543,79.344543 0 0 0 -69.6159,45.04428 h 71.4659 v 0.03049 a 34.092657,34.092657 0 0 1 34.0832,33.260501 v 0.02842 a 34.092657,34.092657 0 0 1 -33.3028,34.857304 34.092657,34.092657 0 0 1 -0.7809,-0.02119 v 0.02997 h -19.7486 c 0.021,0.03484 0.042,0.0699 0.063,0.104905 0.1988,0.343268 0.5876,0.988502 0.7426,1.358572 0.136,0.324606 0.228,0.665922 0.3519,0.995288 0.3213,0.853239 0.7027,1.686491 0.9199,2.576587 0.2122,1.16914 0.4711,2.331362 0.5891,3.515547 0.026,0.263054 -0.01,0.530802 0.029,0.792716 0.047,0.347125 0.31,0.646097 0.2651,1.016992 0.064,0.614386 0.1123,1.008687 0.1406,1.64021 0.043,0.945372 -0.012,0.995588 0.075,1.919264 0.027,0.277691 0.097,0.550357 0.1127,0.828889 0.017,0.308753 -0.012,0.618435 -0.017,0.927592 -0.2127,1.751939 0.031,-0.02408 -0.3618,2.048971 -0.076,0.400754 -0.1137,0.807916 -0.1948,1.20768 -0.2082,1.026917 -0.5001,2.060625 -0.9829,2.993615 -0.305,0.957881 -0.5539,1.900938 -1.0061,2.801379 -0.148,0.294643 -0.3452,0.561906 -0.5219,0.840258 -0.6189,0.974686 -1.213,1.949977 -2.0485,2.759004 -0.2979,0.313502 -0.5794,0.643728 -0.894,0.940512 -1.339,1.263287 -3.0084,2.0672 -4.6276,2.900082 -2.1993,0.610012 -0.5604,0.219733 -5.2612,0.371035 -0.7031,0.02262 -0.075,-0.06848 -0.7798,0.128675 -0.1604,0.04491 -0.6516,0.09953 -0.4857,0.115755 1.0138,0.09924 2.0353,0.09018 3.053,0.135393 -0.2016,0.07344 -0.3965,0.168696 -0.6046,0.220657 -0.6793,0.169574 -1.0562,0.134869 -1.7637,0.19327 -1.0862,0.08965 -2.17,0.191569 -3.2613,0.211873 -1.7117,0.01222 -3.4234,0.03504 -5.1351,0.03669 -0.042,5.3e-5 -0.084,-5.29e-4 -0.1266,-5.29e-4 a 79.344543,79.344543 0 0 0 43.2955,11.835971 79.344543,79.344543 0 0 0 77.5074,-81.12373 v -0.06666 a 79.344543,79.344543 0 0 0 -81.1714,-77.456238 z"
           id="path890"
           inkscape:connector-curvature="0" />
        <path
           style="opacity:1;fill:#000000;fill-opacity:1;stroke:none;stroke-width:6.80524206;stroke-linecap:butt;stroke-linejoin:miter;stroke-miterlimit:4;stroke-dasharray:none;stroke-dashoffset:0;stroke-opacity:1;paint-order:fill markers stroke"
           d="m 1200.3711,48.276639 c -18.7985,0.438446 -37.125,4.601229 -53.998,12.054692 -16.8729,7.453463 -32.2921,18.197607 -45.2761,31.798778 -25.9679,27.202331 -40.068,63.605141 -39.1991,101.202271 0.8688,37.59735 16.6356,73.31012 43.8327,99.28387 27.197,25.97378 63.5971,40.08147 101.1946,39.22033 37.5975,-0.86109 73.3135,-16.62044 99.2928,-43.81204 25.9794,-27.1916 40.0947,-63.58869 39.2414,-101.18633 v -0.11886 c -0.8848,-37.59681 -16.6666,-73.30276 -43.8744,-99.264963 -27.2079,-25.962202 -63.6137,-40.054574 -101.2107,-39.177748 z m 1.0511,45.054096 c 53.4119,-1.245621 97.7236,41.037405 98.9805,94.449015 v 0.0811 c 0.582,25.64991 -9.0478,50.48076 -26.7714,69.03145 -17.7237,18.55069 -42.0899,29.30211 -67.7397,29.88965 -25.6499,0.5875 -50.483,-9.03708 -69.0374,-26.757 -18.5546,-17.71992 -29.311,-42.08405 -29.9038,-67.73388 -1.2342,-53.41218 41.0583,-97.71486 94.4702,-98.960365 v 0 z"
           id="path892"
           inkscape:connector-curvature="0"
           sodipodi:nodetypes="csssscsccsccccscscccc" />
        <path
           style="opacity:1;fill:#000000;fill-opacity:1;stroke:none;stroke-width:13.56899929;stroke-linecap:butt;stroke-linejoin:miter;stroke-miterlimit:4;stroke-dasharray:none;stroke-dashoffset:0;stroke-opacity:1;paint-order:fill markers stroke"
           d="m 1061.8602,-64.223836 v 45.06598 209.213436 h 45.066 V -19.157856 h 111.6955 v -45.06598 h -111.6955 z"
           id="path894"
           inkscape:connector-curvature="0"
           sodipodi:nodetypes="ccccccccc" />
        <path
           style="fill:none;stroke:#000000;stroke-width:0.26458332px;stroke-linecap:butt;stroke-linejoin:miter;stroke-opacity:1"
           d="m 1200.3711,48.276639 c 0,0 -105.8398,27.776971 -93.4449,141.778941"
           id="path896"
           inkscape:connector-curvature="0" />
      </g>
    </g>
  </g>
</svg>
