<?xml version="1.0" encoding="UTF-8" standalone="no"?>
<!-- Created with Inkscape (http://www.inkscape.org/) -->

<svg
   xmlns:dc="http://purl.org/dc/elements/1.1/"
   xmlns:cc="http://creativecommons.org/ns#"
   xmlns:rdf="http://www.w3.org/1999/02/22-rdf-syntax-ns#"
   xmlns:svg="http://www.w3.org/2000/svg"
   xmlns="http://www.w3.org/2000/svg"
   xmlns:sodipodi="http://sodipodi.sourceforge.net/DTD/sodipodi-0.dtd"
   xmlns:inkscape="http://www.inkscape.org/namespaces/inkscape"
   width="56.00111mm"
   height="33.645691mm"
   viewBox="0 0 56.00111 33.645691"
   version="1.1"
   id="svg963"
   inkscape:version="0.92.2 (5c3e80d, 2017-08-06)"
   sodipodi:docname="Deborah_Logo.svg">
  <defs
     id="defs957" />
  <sodipodi:namedview
     id="base"
     pagecolor="#ffffff"
     bordercolor="#666666"
     borderopacity="1.0"
     inkscape:pageopacity="0.0"
     inkscape:pageshadow="2"
     inkscape:zoom="1.4"
     inkscape:cx="-44.662576"
     inkscape:cy="73.860215"
     inkscape:document-units="mm"
     inkscape:current-layer="layer1"
     showgrid="false"
     fit-margin-top="0"
     fit-margin-left="0"
     fit-margin-right="0"
     fit-margin-bottom="0"
     inkscape:window-width="1920"
     inkscape:window-height="986"
     inkscape:window-x="-11"
     inkscape:window-y="-11"
     inkscape:window-maximized="1"
     inkscape:snap-page="true"
     inkscape:snap-intersection-paths="true"
     inkscape:snap-smooth-nodes="true" />
  <metadata
     id="metadata960">
    <rdf:RDF>
      <cc:Work
         rdf:about="">
        <dc:format>image/svg+xml</dc:format>
        <dc:type
           rdf:resource="http://purl.org/dc/dcmitype/StillImage" />
        <dc:title></dc:title>
      </cc:Work>
    </rdf:RDF>
  </metadata>
  <g
     inkscape:label="Layer 1"
     inkscape:groupmode="layer"
     id="layer1"
     transform="translate(114.98543,-202.99581)">
    <path
       style="color:#000000;font-style:normal;font-variant:normal;font-weight:normal;font-stretch:normal;font-size:medium;line-height:normal;font-family:sans-serif;font-variant-ligatures:normal;font-variant-position:normal;font-variant-caps:normal;font-variant-numeric:normal;font-variant-alternates:normal;font-feature-settings:normal;text-indent:0;text-align:start;text-decoration:none;text-decoration-line:none;text-decoration-style:solid;text-decoration-color:#000000;letter-spacing:normal;word-spacing:normal;text-transform:none;writing-mode:lr-tb;direction:ltr;text-orientation:mixed;dominant-baseline:auto;baseline-shift:baseline;text-anchor:start;white-space:normal;shape-padding:0;clip-rule:nonzero;display:inline;overflow:visible;visibility:visible;opacity:1;isolation:auto;mix-blend-mode:normal;color-interpolation:sRGB;color-interpolation-filters:linearRGB;solid-color:#000000;solid-opacity:1;vector-effect:none;fill:#5599ff;fill-opacity:1;fill-rule:evenodd;stroke:none;stroke-width:4.19892025;stroke-linecap:butt;stroke-linejoin:miter;stroke-miterlimit:4;stroke-dasharray:none;stroke-dashoffset:0;stroke-opacity:1;paint-order:fill markers stroke;color-rendering:auto;image-rendering:auto;shape-rendering:auto;text-rendering:auto;enable-background:accumulate"
       d="m -75.806253,202.99581 v 4.19945 c 6.996744,0 12.62385,5.62574 12.62385,12.62248 0,6.99675 -5.627106,12.62431 -12.62385,12.62431 v 4.19945 c 9.266009,0 16.821933,-7.55775 16.821933,-16.82376 0,-9.26601 -7.555924,-16.82193 -16.821933,-16.82193 z"
       id="path1550"
       inkscape:connector-curvature="0" />
    <path
       style="font-style:italic;font-variant:normal;font-weight:normal;font-stretch:normal;font-size:40px;line-height:1.25;font-family:babas;-inkscape-font-specification:'babas Italic';text-align:end;letter-spacing:0px;word-spacing:0px;text-anchor:end;fill:#000000;fill-opacity:1;stroke:none;stroke-width:0.26458332"
       d="m -96.354182,210.98841 v 7.79281 h 1.40043 v -0.59428 c 0.2756,0.26182 0.55295,0.45131 0.832,0.56844 0.27904,0.11369 0.58049,0.17053 0.90433,0.17053 0.72691,0 1.35565,-0.28077 1.88619,-0.84233 0.53055,-0.56499 0.79582,-1.26607 0.79582,-2.10323 0,-0.86816 -0.25666,-1.57957 -0.76998,-2.13423 -0.51331,-0.55467 -1.13689,-0.832 -1.87069,-0.83199 -0.33762,-1e-5 -0.65456,0.0637 -0.95084,0.1912 -0.29628,0.12747 -0.57188,0.31867 -0.82683,0.57361 v -2.79053 z m 24.1484,0 v 7.79281 h 1.40043 v -2.25826 c 0,-0.60289 0.0207,-0.98875 0.062,-1.15756 0.0792,-0.32728 0.22049,-0.58566 0.42375,-0.77514 0.20671,-0.18948 0.45303,-0.28422 0.73897,-0.28422 0.22049,0 0.4048,0.0568 0.55294,0.17053 0.15159,0.11369 0.25838,0.28594 0.32039,0.51676 0.062,0.23083 0.093,0.6718 0.093,1.32292 v 2.46497 h 1.3901 v -3.71554 c 0,-0.64768 -0.16365,-1.13861 -0.49093,-1.47278 -0.38241,-0.38585 -0.85266,-0.57877 -1.41077,-0.57877 -0.28594,0 -0.56844,0.0603 -0.84749,0.18086 -0.27906,0.11714 -0.55638,0.29456 -0.83199,0.53227 v -2.73885 z m -24.1484,9.26042 v 7.7928 h 1.41077 v -7.7928 z m -4.134108,-7.2347 c -0.83371,0 -1.5279,0.28422 -2.08256,0.85266 -0.55121,0.565 -0.82683,1.2764 -0.82683,2.13423 0,0.83716 0.27734,1.53479 0.832,2.0929 0.55466,0.55466 1.27295,0.83199 2.1549,0.83199 0.568438,0 1.059368,-0.0999 1.472778,-0.29972 0.41342,-0.20326 0.76826,-0.51505 1.06454,-0.93535 l -1.18856,-0.5581 c -0.37896,0.36862 -0.83199,0.55294 -1.359088,0.55293 -0.44097,1e-5 -0.80443,-0.11713 -1.09037,-0.35139 -0.28251,-0.23772 -0.45649,-0.55639 -0.52194,-0.95602 h 4.532028 l 0.005,-0.26872 c 0,-0.93017 -0.27733,-1.67775 -0.83199,-2.24275 -0.55466,-0.56844 -1.27469,-0.85267 -2.160078,-0.85266 z m 13.761428,0 c -0.73381,0 -1.38321,0.25493 -1.9482,0.76481 -0.64424,0.58566 -0.96635,1.31775 -0.96635,2.19625 0,0.81993 0.28422,1.51756 0.85266,2.09289 0.57188,0.57189 1.26091,0.85783 2.06706,0.85783 0.54777,0 1.04902,-0.12919 1.50378,-0.38757 0.45475,-0.26183 0.81304,-0.62356 1.07487,-1.08521 0.26527,-0.46164 0.39791,-0.95774 0.39791,-1.48828 0,-0.5271 -0.13091,-1.01803 -0.39274,-1.47278 -0.26182,-0.45475 -0.62701,-0.81476 -1.09554,-1.08004 -0.46509,-0.26527 -0.96291,-0.39791 -1.49345,-0.3979 z m 6.25285,0 c -0.25838,-1e-5 -0.4961,0.0723 -0.71314,0.21704 -0.21703,0.14469 -0.39102,0.35656 -0.52193,0.63562 v -0.70797 h -1.20922 v 5.6224 h 1.40043 v -2.27377 l -0.005,-0.27388 c 0,-0.78548 0.0741,-1.31258 0.22221,-1.5813 0.15158,-0.26872 0.33589,-0.40308 0.55293,-0.40308 0.1068,0 0.24289,0.0413 0.40825,0.12403 l 0.43925,-1.2144 c -0.19982,-0.0965 -0.39102,-0.1447 -0.57361,-0.14469 z m 3.65869,0 c -0.7338,0 -1.35736,0.27732 -1.87068,0.83199 -0.51333,0.55466 -0.76998,1.26607 -0.76998,2.13423 0,0.83716 0.26526,1.53824 0.79581,2.10323 0.53054,0.56156 1.15927,0.84233 1.88619,0.84233 0.32383,0 0.62356,-0.0568 0.89917,-0.17053 0.27905,-0.11713 0.55638,-0.30662 0.83199,-0.56844 v 0.59428 h 1.4056 v -5.6224 h -1.4056 v 0.62012 c -0.2515,-0.25494 -0.52537,-0.44614 -0.82165,-0.57361 -0.29628,-0.12747 -0.61322,-0.1912 -0.95085,-0.1912 z m -23.523108,9.26041 c -0.83371,0 -1.5279,0.28422 -2.08256,0.85266 -0.55121,0.565 -0.82682,1.27641 -0.82682,2.13424 0,0.83716 0.27733,1.53479 0.83199,2.0929 0.55466,0.55466 1.27295,0.83199 2.1549,0.83199 0.568438,0 1.059358,-0.0999 1.472778,-0.29973 0.41341,-0.20326 0.76825,-0.51505 1.06454,-0.93534 l -1.18856,-0.55811 c -0.37896,0.36863 -0.83199,0.55294 -1.359088,0.55294 -0.44097,0 -0.80444,-0.11713 -1.09038,-0.3514 -0.28249,-0.23771 -0.45648,-0.55638 -0.52193,-0.95601 h 4.532028 l 0.005,-0.26872 c 0,-0.93017 -0.27732,-1.67776 -0.83199,-2.24276 -0.55465,-0.56844 -1.27468,-0.85266 -2.160068,-0.85266 z m 9.058878,0 c -0.7338,0 -1.35737,0.27733 -1.87069,0.83199 -0.51331,0.55466 -0.76998,1.26608 -0.76998,2.13424 0,0.83716 0.26528,1.53823 0.79582,2.10323 0.53055,0.56155 1.15928,0.84233 1.88619,0.84233 0.32384,0 0.62357,-0.0568 0.89917,-0.17054 0.27905,-0.11713 0.55639,-0.30662 0.83199,-0.56843 v 0.59427 h 1.4056 v -5.62239 h -1.4056 v 0.62012 c -0.25149,-0.25494 -0.52538,-0.44615 -0.82166,-0.57361 -0.29628,-0.12747 -0.61322,-0.19121 -0.95084,-0.19121 z m 7.67911,0 c -0.27216,0 -0.53915,0.0534 -0.80098,0.1602 -0.25838,0.10335 -0.54777,0.28939 -0.86816,0.55811 v -0.57361 h -1.4056 v 5.62239 h 1.4056 v -2.25826 c 0,-0.58566 0.0207,-0.96635 0.062,-1.14205 0.0792,-0.33762 0.22049,-0.60117 0.42374,-0.79065 0.2067,-0.19292 0.45304,-0.28938 0.73898,-0.28938 0.22049,0 0.4048,0.0586 0.55294,0.1757 0.15158,0.11368 0.25666,0.28077 0.31522,0.50126 0.062,0.22048 0.12286,0.66729 0.093,1.33842 v 2.46496 h 1.39526 v -3.71553 c 0,-0.64768 -0.16364,-1.13688 -0.49092,-1.46761 -0.3893,-0.3893 -0.86301,-0.58395 -1.42111,-0.58395 z m 5.91696,0 c -0.83371,0 -1.5279,0.28422 -2.08256,0.85266 -0.55122,0.565 -0.82683,1.27641 -0.82683,2.13424 0,0.83716 0.27733,1.53479 0.83199,2.0929 0.55466,0.55466 1.27297,0.83199 2.15491,0.83199 0.56845,0 1.05937,-0.0999 1.47278,-0.29973 0.41341,-0.20326 0.76825,-0.51505 1.06453,-0.93534 l -1.18855,-0.55811 c -0.37896,0.36863 -0.83199,0.55294 -1.35909,0.55294 -0.44097,0 -0.80444,-0.11713 -1.09038,-0.3514 -0.2825,-0.23771 -0.45647,-0.55638 -0.52193,-0.95601 h 4.53202 l 0.005,-0.26872 c 0,-0.93017 -0.27733,-1.67776 -0.83199,-2.24276 -0.55466,-0.56844 -1.27468,-0.85266 -2.16007,-0.85266 z m 3.50883,0.1447 2.1394,5.20381 -1.15755,2.47531 h 1.45727 l 3.52434,-7.67912 h -1.44694 l -1.61231,3.5295 -1.46244,-3.5295 z m -26.246458,-8.21139 c 0.36174,0 0.678688,0.0982 0.950838,0.29456 0.27561,0.19636 0.45992,0.4513 0.55294,0.76481 h -3.054068 c 0.15847,-0.34795 0.33073,-0.59083 0.51676,-0.72864 0.29628,-0.22048 0.64079,-0.33073 1.03353,-0.33073 z m 0.14986,9.26042 c 0.361738,0 0.678668,0.0982 0.950838,0.29455 0.27561,0.19637 0.45993,0.45131 0.55294,0.76482 h -3.054078 c 0.15847,-0.34796 0.33074,-0.59084 0.51677,-0.72864 0.29628,-0.22049 0.64079,-0.33073 1.03353,-0.33073 z m 22.654948,0 c 0.36173,0 0.67867,0.0982 0.95084,0.29455 0.2756,0.19637 0.45993,0.45131 0.55294,0.76482 h -3.05408 c 0.15848,-0.34796 0.33073,-0.59084 0.51677,-0.72864 0.29628,-0.22049 0.64079,-0.33073 1.03353,-0.33073 z m -15.85433,-9.1519 c 0.44097,0 0.80615,0.15503 1.09554,0.46509 0.28939,0.30661 0.43408,0.70108 0.43408,1.18339 0,0.48576 -0.14815,0.88539 -0.44442,1.19889 -0.29284,0.3135 -0.65456,0.47026 -1.0852,0.47026 -0.44442,0 -0.81305,-0.15331 -1.10588,-0.45992 -0.29284,-0.31006 -0.43925,-0.71486 -0.43925,-1.2144 0,-0.4892 0.14641,-0.88539 0.43925,-1.18856 0.29283,-0.30316 0.66146,-0.45475 1.10588,-0.45475 z m 16.9447,0 c 0.44787,0 0.8182,0.15159 1.11104,0.45475 0.29283,0.30317 0.43925,0.69936 0.43925,1.18856 0,0.49954 -0.14642,0.90434 -0.43925,1.2144 -0.29284,0.30661 -0.66145,0.45992 -1.10587,0.45992 -0.43064,0 -0.79409,-0.15676 -1.09038,-0.47026 -0.29284,-0.3135 -0.43925,-0.71313 -0.43925,-1.19889 0,-0.48231 0.1447,-0.87678 0.43409,-1.18339 0.28939,-0.31006 0.65285,-0.46509 1.09037,-0.46509 z m -14.46424,9.26042 c 0.44786,0 0.81822,0.15158 1.11105,0.45475 0.29283,0.30317 0.43925,0.69936 0.43925,1.18856 0,0.49954 -0.14642,0.90434 -0.43925,1.2144 -0.29283,0.30661 -0.66147,0.45992 -1.10588,0.45992 -0.43064,0 -0.79409,-0.15676 -1.09037,-0.47026 -0.29283,-0.3135 -0.43925,-0.71313 -0.43925,-1.19889 0,-0.48232 0.14469,-0.87678 0.43408,-1.18339 0.28938,-0.31006 0.65285,-0.46509 1.09037,-0.46509 z m 4.28398,-9.23458 c 0.44786,0 0.81477,0.15158 1.10071,0.45475 0.28939,0.29973 0.43408,0.69074 0.43408,1.17306 0,0.48231 -0.14642,0.87677 -0.43925,1.18339 -0.29284,0.30661 -0.65973,0.45992 -1.1007,0.45992 -0.44097,0 -0.80616,-0.15159 -1.09555,-0.45475 -0.28593,-0.30317 -0.42891,-0.69936 -0.42891,-1.18856 0,-0.47542 0.14469,-0.86472 0.43408,-1.16789 0.29283,-0.30661 0.65801,-0.45992 1.09554,-0.45992 z"
       id="path1554"
       inkscape:connector-curvature="0"
       sodipodi:nodetypes="cccccccscccccccccsccsccsccscscccccccccccscccccccccccccccsccccsccccccccccccccccccscscccccccccssccscccccccccccccscscccccccccsscccccccsccsccsccscccccsccccccccccccccccccccccsccccssccccssccccsscscscscsscscscscsscscscscsscscscscs" />
    <g
       id="g1566"
       transform="translate(113.59769,136.52245)">
      <g
         style="fill:#ff5555"
         transform="matrix(0.81113828,0,0,0.90742437,-53.421597,21.928594)"
         id="g1560">
        <path
           style="font-style:normal;font-variant:normal;font-weight:normal;font-stretch:normal;font-size:10.58333302px;line-height:1.25;font-family:babas;-inkscape-font-specification:babas;text-align:end;letter-spacing:0px;word-spacing:0px;text-anchor:end;fill:#ff5555;fill-opacity:1;stroke:none;stroke-width:0.26458332"
           d="m -209.99736,68.851609 v 7.694621 h 1.94303 c 0.70624,0 1.27469,-0.04823 1.70532,-0.144693 0.43408,-0.09646 0.82682,-0.253214 1.17822,-0.470254 0.50643,-0.313505 0.91123,-0.754478 1.2144,-1.322917 0.30661,-0.568441 0.45992,-1.202341 0.45992,-1.901693 0,-0.747588 -0.14642,-1.393542 -0.43925,-1.937866 -0.29283,-0.544328 -0.70108,-0.980131 -1.22473,-1.307415 -0.30662,-0.189481 -0.68213,-0.337619 -1.12655,-0.444418 -0.44097,-0.110241 -1.03697,-0.165365 -1.788,-0.165365 z m 1.02319,0.878502 h 0.96118 c 0.47542,-3e-6 0.88367,0.03445 1.22473,0.103351 0.34107,0.06546 0.66318,0.184312 0.96635,0.356569 0.41686,0.237709 0.73036,0.563271 0.94051,0.976683 0.21015,0.413411 0.31523,0.921565 0.31523,1.524455 0,0.599448 -0.0965,1.098986 -0.28939,1.498616 -0.18948,0.399632 -0.47542,0.721748 -0.85783,0.96635 -0.30661,0.196369 -0.64423,0.33073 -1.01286,0.403075 -0.36518,0.07235 -0.79409,0.108521 -1.28674,0.108521 h -0.96118 z"
           id="path1556"
           inkscape:connector-curvature="0" />
        <path
           style="opacity:1;fill:#ff5555;fill-opacity:1;stroke:none;stroke-width:0.08942632;stroke-linecap:round;stroke-linejoin:bevel;stroke-miterlimit:4;stroke-dasharray:none;stroke-opacity:1;paint-order:fill markers stroke"
           d="m -790.17102,262.90533 c -0.67675,0.55895 -0.29054,1.53579 -0.39254,2.29562 0,6.91749 0,13.83499 0,20.75248 0.0436,0.78621 0.90972,0.8751 1.52598,0.78953 2.35721,-0.0813 4.73575,0.0442 7.07666,-0.28399 2.45388,-0.35266 4.85156,-1.38516 6.56337,-3.21742 1.82645,-1.75097 2.74619,-4.25363 2.88069,-6.74683 0.16396,-2.76053 0.0721,-5.6891 -1.33161,-8.15464 -1.83031,-3.31319 -5.59997,-5.12625 -9.27351,-5.38819 -2.23477,-0.13618 -4.48433,-0.143 -6.71748,-0.13498 -0.11052,0.0295 -0.22104,0.0589 -0.33156,0.0884 z"
           id="path1558"
           inkscape:connector-curvature="0"
           transform="scale(0.26458333)" />
      </g>
      <g
         transform="translate(-4.8821666,11.871366)"
         id="g1564"
         style="font-style:normal;font-variant:normal;font-weight:bold;font-stretch:normal;font-size:10.58333302px;line-height:1.25;font-family:'Century Gothic';-inkscape-font-specification:'Century Gothic Bold';text-align:end;letter-spacing:0px;word-spacing:0px;text-anchor:end;fill:#000000;fill-opacity:1;stroke:none;stroke-width:0.26458332"
         aria-label="D">
        <path
           inkscape:connector-curvature="0"
           id="path1562"
           style="font-style:normal;font-variant:normal;font-weight:bold;font-stretch:normal;font-family:'Century Gothic';-inkscape-font-specification:'Century Gothic Bold';stroke-width:0.26458332"
           d="m -219.11019,72.225195 h 1.71565 q 1.65882,0 2.46497,0.413411 0.80615,0.408244 1.32808,1.333252 0.52194,0.925008 0.52194,2.160075 0,0.878499 -0.29456,1.617472 -0.28939,0.733805 -0.80615,1.219564 -0.5116,0.485758 -1.11105,0.671793 -0.59944,0.186035 -2.07739,0.186035 h -1.74149 z m 1.44177,1.395263 v 4.790405 h 0.67179 q 0.99219,0 1.43661,-0.227376 0.44958,-0.227376 0.7338,-0.764811 0.28422,-0.537435 0.28422,-1.322917 0,-1.209228 -0.67696,-1.875854 -0.60978,-0.599447 -1.95854,-0.599447 z" />
      </g>
    </g>
    <path
       inkscape:connector-curvature="0"
       id="path1568"
       d="m -110.43854,211.32431 v 7.60161 h 1.71586 c 0.62367,0 1.12566,-0.0476 1.50594,-0.14295 0.38333,-0.0953 0.73016,-0.25015 1.04047,-0.46457 0.44722,-0.30971 0.8047,-0.74535 1.07242,-1.30692 0.27077,-0.56157 0.40615,-1.18781 0.40615,-1.87871 0,-0.73855 -0.1293,-1.3767 -0.38789,-1.91444 -0.2586,-0.53775 -0.61912,-0.96828 -1.08155,-1.29161 -0.27077,-0.18719 -0.60237,-0.33354 -0.99484,-0.43905 -0.38941,-0.1089 -0.91573,-0.16336 -1.57895,-0.16336 z m 0.90356,0.86788 h 0.84881 c 0.41983,0 0.78035,0.034 1.08154,0.1021 0.30119,0.0647 0.58564,0.18209 0.85337,0.35226 0.36812,0.23484 0.64497,0.55646 0.83055,0.96488 0.18558,0.40841 0.27837,0.91042 0.27837,1.50603 0,0.5922 -0.0852,1.0857 -0.25555,1.4805 -0.16733,0.3948 -0.41984,0.71302 -0.75754,0.95467 -0.27076,0.19399 -0.56891,0.32673 -0.89444,0.3982 -0.32249,0.0715 -0.70125,0.10721 -1.1363,0.10721 h -0.84881 z"
       style="font-style:normal;font-variant:normal;font-weight:normal;font-stretch:normal;font-size:10.58333302px;line-height:1.25;font-family:babas;-inkscape-font-specification:babas;text-align:end;letter-spacing:0px;word-spacing:0px;text-anchor:end;fill:#4cc8e9;fill-opacity:1;stroke:none;stroke-width:0.24712862" />
    <path
       inkscape:connector-curvature="0"
       id="path1570"
       d="m -109.61614,212.0245 c -0.15812,0.1461 -0.0679,0.40143 -0.0917,0.60004 0,1.80813 0,3.61626 0,5.42439 0.0102,0.2055 0.21256,0.22874 0.35655,0.20637 0.55076,-0.0213 1.10651,0.0115 1.65346,-0.0742 0.57335,-0.0922 1.13356,-0.36206 1.53353,-0.84099 0.42675,-0.45767 0.64164,-1.11183 0.67307,-1.76352 0.0383,-0.72156 0.0168,-1.48704 -0.31113,-2.1315 -0.42765,-0.86602 -1.30843,-1.33992 -2.16675,-1.40839 -0.52216,-0.0356 -1.04777,-0.0374 -1.56954,-0.0353 -0.0258,0.008 -0.0516,0.0154 -0.0775,0.0231 z"
       style="opacity:1;fill:#5599ff;fill-opacity:1;stroke:none;stroke-width:0.0220998;stroke-linecap:round;stroke-linejoin:bevel;stroke-miterlimit:4;stroke-dasharray:none;stroke-opacity:1;paint-order:fill markers stroke" />
    <g
       transform="translate(108.67165,139.09911)"
       id="g1574"
       style="font-style:normal;font-variant:normal;font-weight:bold;font-stretch:normal;font-size:10.58333302px;line-height:1.25;font-family:'Century Gothic';-inkscape-font-specification:'Century Gothic Bold';text-align:end;letter-spacing:0px;word-spacing:0px;text-anchor:end;fill:#000000;fill-opacity:1;stroke:none;stroke-width:0.26458332"
       aria-label="D">
      <path
         inkscape:connector-curvature="0"
         id="path1572"
         style="font-style:normal;font-variant:normal;font-weight:bold;font-stretch:normal;font-family:'Century Gothic';-inkscape-font-specification:'Century Gothic Bold';stroke-width:0.26458332"
         d="m -219.11019,72.225195 h 1.71565 q 1.65882,0 2.46497,0.413411 0.80615,0.408244 1.32808,1.333252 0.52194,0.925008 0.52194,2.160075 0,0.878499 -0.29456,1.617472 -0.28939,0.733805 -0.80615,1.219564 -0.5116,0.485758 -1.11105,0.671793 -0.59944,0.186035 -2.07739,0.186035 h -1.74149 z m 1.44177,1.395263 v 4.790405 h 0.67179 q 0.99219,0 1.43661,-0.227376 0.44958,-0.227376 0.7338,-0.764811 0.28422,-0.537435 0.28422,-1.322917 0,-1.209228 -0.67696,-1.875854 -0.60978,-0.599447 -1.95854,-0.599447 z" />
    </g>
    <path
       style="opacity:1;fill:#5599ff;fill-opacity:1;fill-rule:evenodd;stroke:none;stroke-width:4.76499987;stroke-linecap:butt;stroke-linejoin:miter;stroke-miterlimit:4;stroke-dasharray:none;stroke-dashoffset:0;stroke-opacity:1;paint-order:fill markers stroke"
       d="m -114.98543,232.44205 h 39.17918 v 4.19945 h -39.17918 z"
       id="rect1585"
       inkscape:connector-curvature="0"
       sodipodi:nodetypes="ccccc" />
    <path
       style="opacity:1;fill:#5599ff;fill-opacity:1;fill-rule:evenodd;stroke:none;stroke-width:4.53125048;stroke-linecap:butt;stroke-linejoin:miter;stroke-miterlimit:4;stroke-dasharray:none;stroke-dashoffset:0;stroke-opacity:1;paint-order:fill markers stroke"
       d="m -74.538951,234.54685 c -2e-6,1.16244 -0.567391,2.09465 -1.267302,2.09465 -0.699911,0 -1.267301,-0.93221 -1.267303,-2.09465 -2e-6,-1.16245 0.56739,-2.1048 1.267303,-2.1048 0.699913,0 1.267304,0.94235 1.267302,2.1048 z"
       id="path1588"
       inkscape:connector-curvature="0"
       sodipodi:nodetypes="sssss" />
  </g>
</svg>
