<?xml version="1.0" encoding="UTF-8" standalone="no"?>
<!-- Created with Inkscape (http://www.inkscape.org/) -->

<svg
   xmlns:dc="http://purl.org/dc/elements/1.1/"
   xmlns:cc="http://creativecommons.org/ns#"
   xmlns:rdf="http://www.w3.org/1999/02/22-rdf-syntax-ns#"
   xmlns:svg="http://www.w3.org/2000/svg"
   xmlns="http://www.w3.org/2000/svg"
   xmlns:xlink="http://www.w3.org/1999/xlink"
   xmlns:sodipodi="http://sodipodi.sourceforge.net/DTD/sodipodi-0.dtd"
   xmlns:inkscape="http://www.inkscape.org/namespaces/inkscape"
   width="316.707mm"
   height="112.83322mm"
   viewBox="0 0 316.707 112.83322"
   version="1.1"
   id="svg959"
   inkscape:version="0.92.2 (5c3e80d, 2017-08-06)"
   sodipodi:docname="Mastny_Spanish_Academy.svg">
  <defs
     id="defs953">
    <linearGradient
       inkscape:collect="always"
       xlink:href="#linearGradient957"
       id="linearGradient6946"
       gradientUnits="userSpaceOnUse"
       gradientTransform="matrix(0,0.43985677,1.4321273,0,497.4666,-4.4257238)"
       x1="466.18246"
       y1="-318.01434"
       x2="468.75958"
       y2="-309.52271" />
    <linearGradient
       inkscape:collect="always"
       id="linearGradient957">
      <stop
         style="stop-color:#000000;stop-opacity:1;"
         offset="0"
         id="stop953" />
      <stop
         style="stop-color:#000000;stop-opacity:0;"
         offset="1"
         id="stop955" />
    </linearGradient>
    <linearGradient
       inkscape:collect="always"
       xlink:href="#linearGradient957"
       id="linearGradient6944"
       gradientUnits="userSpaceOnUse"
       gradientTransform="matrix(0,0.43985677,-1.4321273,0,-418.51062,-4.4256338)"
       x1="466.18246"
       y1="-318.01434"
       x2="468.75958"
       y2="-309.52271" />
  </defs>
  <sodipodi:namedview
     id="base"
     pagecolor="#ffffff"
     bordercolor="#666666"
     borderopacity="1.0"
     inkscape:pageopacity="0.0"
     inkscape:pageshadow="2"
     inkscape:zoom="0.49497475"
     inkscape:cx="279.44571"
     inkscape:cy="-11.451788"
     inkscape:document-units="mm"
     inkscape:current-layer="layer1"
     showgrid="false"
     inkscape:window-width="1920"
     inkscape:window-height="986"
     inkscape:window-x="-11"
     inkscape:window-y="-11"
     inkscape:window-maximized="1"
     fit-margin-top="0"
     fit-margin-left="0"
     fit-margin-right="0"
     fit-margin-bottom="0" />
  <metadata
     id="metadata956">
    <rdf:RDF>
      <cc:Work
         rdf:about="">
        <dc:format>image/svg+xml</dc:format>
        <dc:type
           rdf:resource="http://purl.org/dc/dcmitype/StillImage" />
        <dc:title />
      </cc:Work>
    </rdf:RDF>
  </metadata>
  <g
     inkscape:label="Layer 1"
     inkscape:groupmode="layer"
     id="layer1"
     transform="translate(16.234453,-153.64887)">
    <path
       style="color:#000000;font-style:normal;font-variant:normal;font-weight:normal;font-stretch:normal;font-size:medium;line-height:normal;font-family:sans-serif;font-variant-ligatures:normal;font-variant-position:normal;font-variant-caps:normal;font-variant-numeric:normal;font-variant-alternates:normal;font-feature-settings:normal;text-indent:0;text-align:start;text-decoration:none;text-decoration-line:none;text-decoration-style:solid;text-decoration-color:#000000;letter-spacing:normal;word-spacing:normal;text-transform:none;writing-mode:lr-tb;direction:ltr;text-orientation:mixed;dominant-baseline:auto;baseline-shift:baseline;text-anchor:start;white-space:normal;shape-padding:0;clip-rule:nonzero;display:inline;overflow:visible;visibility:visible;opacity:1;isolation:auto;mix-blend-mode:normal;color-interpolation:sRGB;color-interpolation-filters:linearRGB;solid-color:#000000;solid-opacity:1;vector-effect:none;fill:#cccccc;fill-opacity:1;fill-rule:evenodd;stroke:none;stroke-width:0.37891701px;stroke-linecap:butt;stroke-linejoin:miter;stroke-miterlimit:4;stroke-dasharray:none;stroke-dashoffset:0;stroke-opacity:1;color-rendering:auto;image-rendering:auto;shape-rendering:auto;text-rendering:auto;enable-background:accumulate"
       d="m -5.8956069,164.11703 v 44.88835 c -0.0183,9.36764 0.0183,18.93363 9.87034,29.58513 1.59279,1.72205 4.63887,3.71494 8.2880689,5.68967 3.649332,1.97476 7.90816,3.94266 11.960312,5.68892 8.03792,3.46396 15.13799,6.00277 15.255838,6.04493 0.120132,-0.043 7.219241,-2.58151 15.255862,-6.04493 4.05216,-1.74626 8.310988,-3.71416 11.96031,-5.68892 3.649199,-1.97472 6.69227,-3.96757 8.28512,-5.68967 9.851973,-10.6515 9.889413,-20.21749 9.871073,-29.58513 v -44.88835 z"
       id="path6900"
       inkscape:connector-curvature="0" />
    <path
       style="opacity:1;fill:#ccaaff;fill-opacity:1;fill-rule:evenodd;stroke:none;stroke-width:3.10588408;stroke-linecap:butt;stroke-linejoin:miter;stroke-miterlimit:4;stroke-dasharray:none;stroke-dashoffset:0;stroke-opacity:1;paint-order:fill markers stroke"
       d="M -5.8954069,164.11694 39.476933,211.34465 84.851507,164.11694 Z"
       id="path6902"
       inkscape:connector-curvature="0"
       sodipodi:nodetypes="cccc" />
    <path
       style="color:#000000;font-style:normal;font-variant:normal;font-weight:normal;font-stretch:normal;font-size:medium;line-height:normal;font-family:sans-serif;font-variant-ligatures:normal;font-variant-position:normal;font-variant-caps:normal;font-variant-numeric:normal;font-variant-alternates:normal;font-feature-settings:normal;text-indent:0;text-align:start;text-decoration:none;text-decoration-line:none;text-decoration-style:solid;text-decoration-color:#000000;letter-spacing:normal;word-spacing:normal;text-transform:none;writing-mode:lr-tb;direction:ltr;text-orientation:mixed;dominant-baseline:auto;baseline-shift:baseline;text-anchor:start;white-space:normal;shape-padding:0;clip-rule:nonzero;display:inline;overflow:visible;visibility:visible;opacity:1;isolation:auto;mix-blend-mode:normal;color-interpolation:sRGB;color-interpolation-filters:linearRGB;solid-color:#000000;solid-opacity:1;vector-effect:none;fill:#80e5ff;fill-opacity:1;fill-rule:evenodd;stroke:none;stroke-width:0.37891701px;stroke-linecap:butt;stroke-linejoin:miter;stroke-miterlimit:4;stroke-dasharray:none;stroke-dashoffset:0;stroke-opacity:1;color-rendering:auto;image-rendering:auto;shape-rendering:auto;text-rendering:auto;enable-background:accumulate"
       d="m -5.8954169,164.11694 v 44.88835 c -0.0183,9.36765 0.0183,18.93363 9.87034,29.58512 1.59279,1.72205 4.63887,3.71496 8.2880799,5.68968 3.649321,1.97477 7.908139,3.94266 11.960299,5.68893 8.034541,3.4625 15.129931,5.99995 15.253631,6.04419 v -44.66856 z"
       id="path6904"
       inkscape:connector-curvature="0"
       sodipodi:nodetypes="ccccsccc" />
    <path
       inkscape:connector-curvature="0"
       id="path6906"
       d="m -16.232807,153.64887 v 55.11469 c -0.0228,11.5018 0.0228,23.24788 12.1192601,36.32603 1.95564,2.11435 5.69555,4.56091 10.17614,6.98548 4.4807109,2.4247 9.7095999,4.84062 14.6849089,6.98474 9.869131,4.25314 18.586821,7.37049 18.731572,7.42228 0.1475,-0.0527 8.86402,-3.1698 18.731529,-7.42228 4.975381,-2.14412 10.204251,-4.56004 14.684941,-6.98474 4.48056,-2.42457 8.21721,-4.87104 10.172959,-6.98548 12.096504,-13.07815 12.142564,-24.82423 12.120044,-36.32603 v -55.11469 z m 5.42037,5.48867 H 89.768177 v 49.75308 c 0.0203,10.38279 -0.0212,20.98575 -10.940855,32.79155 -1.765498,1.90875 -5.13806,4.1171 -9.18274,6.3058 -4.044788,2.18881 -8.765048,4.36948 -13.25639,6.30498 -8.90751,3.83875 -16.77589,6.65283 -16.909118,6.70046 -0.130601,-0.0469 -8.000191,-2.86109 -16.909182,-6.70046 -4.491239,-1.9355 -9.211538,-4.11617 -13.2563389,-6.30498 -4.04471,-2.1887 -7.42056,-4.39715 -9.18593996,-6.3058 C -10.791977,229.87637 -10.832997,219.27341 -10.812437,208.89062 Z"
       style="color:#000000;font-style:normal;font-variant:normal;font-weight:normal;font-stretch:normal;font-size:medium;line-height:normal;font-family:sans-serif;font-variant-ligatures:normal;font-variant-position:normal;font-variant-caps:normal;font-variant-numeric:normal;font-variant-alternates:normal;font-feature-settings:normal;text-indent:0;text-align:start;text-decoration:none;text-decoration-line:none;text-decoration-style:solid;text-decoration-color:#000000;letter-spacing:normal;word-spacing:normal;text-transform:none;writing-mode:lr-tb;direction:ltr;text-orientation:mixed;dominant-baseline:auto;baseline-shift:baseline;text-anchor:start;white-space:normal;shape-padding:0;clip-rule:nonzero;display:inline;overflow:visible;visibility:visible;opacity:1;isolation:auto;mix-blend-mode:normal;color-interpolation:sRGB;color-interpolation-filters:linearRGB;solid-color:#000000;solid-opacity:1;vector-effect:none;fill:#333333;fill-opacity:1;fill-rule:evenodd;stroke:none;stroke-width:0.46524301px;stroke-linecap:butt;stroke-linejoin:miter;stroke-miterlimit:4;stroke-dasharray:none;stroke-dashoffset:0;stroke-opacity:1;color-rendering:auto;image-rendering:auto;shape-rendering:auto;text-rendering:auto;enable-background:accumulate" />
    <path
       sodipodi:nodetypes="ccccc"
       inkscape:connector-curvature="0"
       id="path6908"
       d="m 39.476933,211.34465 v 11.52077 L -5.8956069,175.63781 v -11.52078 z"
       style="opacity:1;fill:url(#linearGradient6944);fill-opacity:1;fill-rule:evenodd;stroke:none;stroke-width:1.5054965;stroke-linecap:butt;stroke-linejoin:miter;stroke-miterlimit:4;stroke-dasharray:none;stroke-dashoffset:0;stroke-opacity:1;paint-order:fill markers stroke" />
    <path
       style="opacity:1;fill:url(#linearGradient6946);fill-opacity:1;fill-rule:evenodd;stroke:none;stroke-width:1.5054965;stroke-linecap:butt;stroke-linejoin:miter;stroke-miterlimit:4;stroke-dasharray:none;stroke-dashoffset:0;stroke-opacity:1;paint-order:fill markers stroke"
       d="m 39.478952,211.34457 v 11.52078 l 45.372555,-47.22763 v -11.52078 z"
       id="path6910"
       inkscape:connector-curvature="0"
       sodipodi:nodetypes="ccccc" />
    <g
       aria-label="MASTNY 
SPANISH 
ACADEMY"
       transform="matrix(0.95609709,0,0,0.95609709,-730.90613,1902.8992)"
       style="font-style:normal;font-variant:normal;font-weight:normal;font-stretch:normal;font-size:40px;line-height:1;font-family:Corbert;-inkscape-font-specification:Corbert;font-variant-ligatures:normal;font-variant-caps:normal;font-variant-numeric:normal;font-feature-settings:normal;text-align:start;letter-spacing:1px;word-spacing:1.84000003px;writing-mode:lr-tb;text-anchor:start;fill:#000000;fill-opacity:1;stroke:none"
       id="flowRoot1115">
      <path
         d="m 905.03594,-1827.4104 v 28 h -2.44 v -23.52 l -10.36,23.52 h -2.36 l -10.32,-23.44 v 23.44 h -2.4 v -28 h 2.96 l 10.96,25.44 10.96,-25.44 z"
         id="path2110"
         inkscape:connector-curvature="0" />
      <path
         d="m 932.20031,-1807.1304 h -14.48 l -3.16,7.72 h -2.52 l 11.64,-28 h 2.56 l 11.68,28 h -2.56 z m -0.84,-2.04 -6.4,-15.72 -6.44,15.72 z"
         id="path2112"
         inkscape:connector-curvature="0" />
      <path
         d="m 954.82281,-1828.0904 q 2.76,0 5.24,0.6 2.48,0.6 4.36,1.76 l -1.4,1.72 q -1.64,-1 -3.84,-1.48 -2.16,-0.52 -4.56,-0.52 -3.64,0 -6.16,1.48 -2.52,1.44 -2.52,4.16 0,1.8 1.12,2.92 1.12,1.08 2.76,1.64 1.64,0.52 4,0.92 3.68,0.64 6.12,1.48 2.48,0.8 4.08,2.44 1.6,1.6 1.6,4.32 0,2.68 -1.64,4.48 -1.64,1.76 -4.24,2.6 -2.6,0.84 -5.64,0.84 -3.44,0 -6.64,-1.04 -3.2,-1.04 -4.96,-2.8 l 1.44,-1.64 q 1.56,1.6 4.36,2.52 2.84,0.88 5.92,0.88 3.84,0 6.48,-1.44 2.64,-1.44 2.64,-4.36 0,-1.92 -1.32,-3.08 -1.32,-1.2 -3.44,-1.84 -2.12,-0.68 -5.48,-1.24 -2.84,-0.52 -4.84,-1.24 -1.96,-0.76 -3.28,-2.24 -1.32,-1.48 -1.32,-3.92 0,-2.6 1.56,-4.36 1.6,-1.8 4.12,-2.68 2.56,-0.88 5.48,-0.88 z"
         id="path2114"
         inkscape:connector-curvature="0" />
      <path
         d="m 993.25594,-1825.3704 h -10.4 v 25.96 h -2.44 v -25.96 h -10.4 v -2.04 h 23.24 z"
         id="path2116"
         inkscape:connector-curvature="0" />
      <path
         d="m 1022.2184,-1827.4104 v 28 h -2.92 l -16.68,-24.48 v 24.48 h -2.4 v -28 h 2.88 l 16.68,24.48 v -24.48 z"
         id="path2118"
         inkscape:connector-curvature="0" />
      <path
         d="m 1042.4434,-1810.5704 v 11.16 h -2.44 v -11.08 l -10.88,-16.92 h 2.8 l 9.32,14.6 9.28,-14.6 h 2.84 z"
         id="path2120"
         inkscape:connector-curvature="0" />
      <path
         d="m 887.27594,-1788.0904 q 2.76,0 5.24,0.6 2.48,0.6 4.36,1.76 l -1.4,1.72 q -1.64,-1 -3.84,-1.48 -2.16,-0.52 -4.56,-0.52 -3.64,0 -6.16,1.48 -2.52,1.44 -2.52,4.16 0,1.8 1.12,2.92 1.12,1.08 2.76,1.64 1.64,0.52 4,0.92 3.68,0.64 6.12,1.48 2.48,0.8 4.08,2.44 1.6,1.6 1.6,4.32 0,2.68 -1.64,4.48 -1.64,1.76 -4.24,2.6 -2.6,0.84 -5.64,0.84 -3.44,0 -6.64,-1.04 -3.2,-1.04 -4.96,-2.8 l 1.44,-1.64 q 1.56,1.6 4.36,2.52 2.84,0.88 5.92,0.88 3.84,0 6.48,-1.44 2.64,-1.44 2.64,-4.36 0,-1.92 -1.32,-3.08 -1.32,-1.2 -3.44,-1.84 -2.12,-0.68 -5.48,-1.24 -2.84,-0.52 -4.84,-1.24 -1.96,-0.76 -3.28,-2.24 -1.32,-1.48 -1.32,-3.92 0,-2.6 1.56,-4.36 1.6,-1.8 4.12,-2.68 2.56,-0.88 5.48,-0.88 z"
         id="path2122"
         inkscape:connector-curvature="0" />
      <path
         d="m 917.21594,-1787.4104 q 2.88,0 4.96,1.16 2.12,1.16 3.24,3.24 1.12,2.08 1.12,4.8 0,4.2 -2.48,6.72 -2.48,2.52 -6.84,2.52 h -9.16 v 9.56 h -2.4 v -28 z m -0.24,16.44 q 3.4,0 5.28,-1.92 1.88,-1.96 1.88,-5.32 0,-3.32 -1.92,-5.24 -1.88,-1.96 -5.24,-1.96 h -8.92 v 14.44 z"
         id="path2124"
         inkscape:connector-curvature="0" />
      <path
         d="m 949.05969,-1767.1304 h -14.48 l -3.16,7.72 h -2.52 l 11.64,-28 h 2.56 l 11.68,28 h -2.56 z m -0.84,-2.04 -6.4,-15.72 -6.44,15.72 z"
         id="path2126"
         inkscape:connector-curvature="0" />
      <path
         d="m 983.71844,-1787.4104 v 28 h -2.92 l -16.68,-24.48 v 24.48 h -2.4 v -28 h 2.88 l 16.68,24.48 v -24.48 z"
         id="path2128"
         inkscape:connector-curvature="0" />
      <path
         d="m 993.34344,-1759.4104 v -28 h 2.4 v 28 z"
         id="path2130"
         inkscape:connector-curvature="0" />
      <path
         d="m 1015.4791,-1788.0904 q 2.76,0 5.24,0.6 2.48,0.6 4.36,1.76 l -1.4,1.72 q -1.64,-1 -3.84,-1.48 -2.16,-0.52 -4.56,-0.52 -3.64,0 -6.16,1.48 -2.52,1.44 -2.52,4.16 0,1.8 1.12,2.92 1.12,1.08 2.76,1.64 1.64,0.52 4,0.92 3.68,0.64 6.12,1.48 2.48,0.8 4.08,2.44 1.6,1.6 1.6,4.32 0,2.68 -1.64,4.48 -1.64,1.76 -4.24,2.6 -2.6,0.84 -5.64,0.84 -3.44,0 -6.64,-1.04 -3.2,-1.04 -4.96,-2.8 l 1.44,-1.64 q 1.56,1.6 4.36,2.52 2.84,0.88 5.92,0.88 3.84,0 6.48,-1.44 2.64,-1.44 2.64,-4.36 0,-1.92 -1.32,-3.08 -1.32,-1.2 -3.44,-1.84 -2.12,-0.68 -5.48,-1.24 -2.84,-0.52 -4.84,-1.24 -1.96,-0.76 -3.28,-2.24 -1.32,-1.48 -1.32,-3.92 0,-2.6 1.56,-4.36 1.6,-1.8 4.12,-2.68 2.56,-0.88 5.48,-0.88 z"
         id="path2132"
         inkscape:connector-curvature="0" />
      <path
         d="m 1056.4591,-1787.4104 v 28 h -2.44 v -12.96 h -17.76 v 12.96 h -2.4 v -28 h 2.4 v 12.96 h 17.76 v -12.96 z"
         id="path2134"
         inkscape:connector-curvature="0" />
      <path
         d="m 894.71594,-1727.1304 h -14.48 l -3.16,7.72 h -2.52 l 11.64,-28 h 2.56 l 11.68,28 h -2.56 z m -0.84,-2.04 -6.4,-15.72 -6.44,15.72 z"
         id="path2136"
         inkscape:connector-curvature="0" />
      <path
         d="m 918.05781,-1748.0904 q 4.76,0 8.16,2.36 l -1.52,1.64 q -2.68,-1.96 -6.64,-1.96 -3.6,0 -6.24,1.6 -2.6,1.56 -4,4.4 -1.36,2.84 -1.36,6.6 0,3.8 1.36,6.64 1.4,2.84 4,4.44 2.64,1.56 6.24,1.56 4,0 6.64,-1.92 l 1.52,1.64 q -3.4,2.36 -8.16,2.36 -4.36,0 -7.52,-1.88 -3.16,-1.88 -4.84,-5.2 -1.64,-3.32 -1.64,-7.64 0,-4.28 1.64,-7.56 1.68,-3.32 4.84,-5.2 3.16,-1.88 7.52,-1.88 z"
         id="path2138"
         inkscape:connector-curvature="0" />
      <path
         d="m 951.01281,-1727.1304 h -14.48 l -3.16,7.72 h -2.52 l 11.64,-28 h 2.56 l 11.68,28 h -2.56 z m -0.84,-2.04 -6.4,-15.72 -6.44,15.72 z"
         id="path2140"
         inkscape:connector-curvature="0" />
      <path
         d="m 972.55156,-1747.4104 q 4.4,0 7.56,1.76 3.2,1.72 4.88,4.88 1.68,3.16 1.68,7.32 0,4.2 -1.68,7.4 -1.64,3.16 -4.84,4.92 -3.16,1.72 -7.6,1.72 h -8.88 v -28 z m 0,25.96 q 5.56,0 8.6,-3.16 3.08,-3.2 3.08,-8.84 0,-5.52 -3.08,-8.72 -3.08,-3.2 -8.6,-3.2 h -6.48 v 23.92 z"
         id="path2142"
         inkscape:connector-curvature="0" />
      <path
         d="m 997.07156,-1745.3704 v 10.52 h 13.84004 v 2.04 h -13.84004 v 11.36 h 15.08004 v 2.04 h -17.48004 v -28 h 17.48004 v 2.04 z"
         id="path2144"
         inkscape:connector-curvature="0" />
      <path
         d="m 1047.6141,-1747.4104 v 28 h -2.44 v -23.52 l -10.36,23.52 h -2.36 l -10.32,-23.44 v 23.44 h -2.4 v -28 h 2.96 l 10.96,25.44 10.96,-25.44 z"
         id="path2146"
         inkscape:connector-curvature="0" />
      <path
         d="m 1067.8184,-1730.5704 v 11.16 h -2.44 v -11.08 l -10.88,-16.92 h 2.8 l 9.32,14.6 9.28,-14.6 h 2.84 z"
         id="path2148"
         inkscape:connector-curvature="0" />
    </g>
  </g>
</svg>
