<?xml version="1.0" encoding="UTF-8" standalone="no"?>
<!-- Created with Inkscape (http://www.inkscape.org/) -->

<svg
   xmlns:dc="http://purl.org/dc/elements/1.1/"
   xmlns:cc="http://creativecommons.org/ns#"
   xmlns:rdf="http://www.w3.org/1999/02/22-rdf-syntax-ns#"
   xmlns:svg="http://www.w3.org/2000/svg"
   xmlns="http://www.w3.org/2000/svg"
   xmlns:sodipodi="http://sodipodi.sourceforge.net/DTD/sodipodi-0.dtd"
   xmlns:inkscape="http://www.inkscape.org/namespaces/inkscape"
   width="48.1362mm"
   height="37.087975mm"
   viewBox="0 0 48.1362 37.087975"
   version="1.1"
   id="svg1376"
   inkscape:version="0.92.2 (5c3e80d, 2017-08-06)"
   sodipodi:docname="Personal_Logo_No_Text.svg">
  <defs
     id="defs1370" />
  <sodipodi:namedview
     id="base"
     pagecolor="#ffffff"
     bordercolor="#666666"
     borderopacity="1.0"
     inkscape:pageopacity="0.0"
     inkscape:pageshadow="2"
     inkscape:zoom="2.8"
     inkscape:cx="-9.3008711"
     inkscape:cy="38.219659"
     inkscape:document-units="mm"
     inkscape:current-layer="layer1"
     showgrid="false"
     fit-margin-top="0"
     fit-margin-left="0"
     fit-margin-right="0"
     fit-margin-bottom="0"
     inkscape:window-width="1920"
     inkscape:window-height="986"
     inkscape:window-x="-11"
     inkscape:window-y="-11"
     inkscape:window-maximized="1" />
  <metadata
     id="metadata1373">
    <rdf:RDF>
      <cc:Work
         rdf:about="">
        <dc:format>image/svg+xml</dc:format>
        <dc:type
           rdf:resource="http://purl.org/dc/dcmitype/StillImage" />
        <dc:title />
      </cc:Work>
    </rdf:RDF>
  </metadata>
  <g
     inkscape:label="Layer 1"
     inkscape:groupmode="layer"
     id="layer1"
     transform="translate(-40.187849,-82.664349)">
    <g
       id="g819">
      <path
         inkscape:connector-curvature="0"
         id="path1119"
         d="m 55.66354,82.664349 c -1.608876,0 -3.217505,0.768438 -4.104966,2.304746 a 2.0837831,2.0837831 0 0 0 0,4.12e-4 L 40.821292,103.5669 a 2.0837831,2.0837831 0 0 0 0,4.2e-4 c -0.805128,1.39543 -0.845183,3.11226 -0.106222,4.54383 0,1.1e-4 0,2.1e-4 0,4.1e-4 a 2.0837831,2.0837831 0 0 0 0.320972,0.45452 c 0.874157,1.2896 2.310129,2.11117 3.890298,2.1116 h 7.553201 l 2.406054,-4.16743 h -9.958823 c -0.218519,-2e-4 -0.40901,-0.11624 -0.509218,-0.31043 -0.0908,-0.17585 -0.08604,-0.37845 0.01277,-0.54987 l 10.73687,-18.596546 v -4.12e-4 c 0.135444,-0.234141 0.315886,-0.351622 0.496348,-0.351614 v 1.1e-4 c 0.180482,1e-5 0.360944,0.117229 0.496326,0.351506 l 4.979741,8.625057 2.405849,-4.167105 -3.776765,-6.541451 a 2.0837831,2.0837831 0 0 0 0,-4.12e-4 C 58.881376,83.432693 57.2725,82.664516 55.663644,82.66444 Z"
         style="color:#000000;font-style:normal;font-variant:normal;font-weight:normal;font-stretch:normal;font-size:medium;line-height:normal;font-family:sans-serif;font-variant-ligatures:normal;font-variant-position:normal;font-variant-caps:normal;font-variant-numeric:normal;font-variant-alternates:normal;font-feature-settings:normal;text-indent:0;text-align:start;text-decoration:none;text-decoration-line:none;text-decoration-style:solid;text-decoration-color:#000000;letter-spacing:normal;word-spacing:normal;text-transform:none;writing-mode:lr-tb;direction:ltr;text-orientation:mixed;dominant-baseline:auto;baseline-shift:baseline;text-anchor:start;white-space:normal;shape-padding:0;clip-rule:nonzero;display:inline;overflow:visible;visibility:visible;opacity:1;isolation:auto;mix-blend-mode:normal;color-interpolation:sRGB;color-interpolation-filters:linearRGB;solid-color:#000000;solid-opacity:1;vector-effect:none;fill:#3771c8;fill-opacity:1;fill-rule:evenodd;stroke:none;stroke-width:4.16714954;stroke-linecap:butt;stroke-linejoin:round;stroke-miterlimit:4;stroke-dasharray:none;stroke-dashoffset:0;stroke-opacity:1;paint-order:fill markers stroke;color-rendering:auto;image-rendering:auto;shape-rendering:auto;text-rendering:auto;enable-background:accumulate" />
      <path
         style="color:#000000;font-style:normal;font-variant:normal;font-weight:normal;font-stretch:normal;font-size:medium;line-height:normal;font-family:sans-serif;font-variant-ligatures:normal;font-variant-position:normal;font-variant-caps:normal;font-variant-numeric:normal;font-variant-alternates:normal;font-feature-settings:normal;text-indent:0;text-align:start;text-decoration:none;text-decoration-line:none;text-decoration-style:solid;text-decoration-color:#000000;letter-spacing:normal;word-spacing:normal;text-transform:none;writing-mode:lr-tb;direction:ltr;text-orientation:mixed;dominant-baseline:auto;baseline-shift:baseline;text-anchor:start;white-space:normal;shape-padding:0;clip-rule:nonzero;display:inline;overflow:visible;visibility:visible;opacity:1;isolation:auto;mix-blend-mode:normal;color-interpolation:sRGB;color-interpolation-filters:linearRGB;solid-color:#000000;solid-opacity:1;vector-effect:none;fill:none;fill-opacity:1;fill-rule:evenodd;stroke:#000000;stroke-width:4.65745068;stroke-linecap:butt;stroke-linejoin:round;stroke-miterlimit:4;stroke-dasharray:none;stroke-dashoffset:0;stroke-opacity:1;paint-order:fill markers stroke;color-rendering:auto;image-rendering:auto;shape-rendering:auto;text-rendering:auto;enable-background:accumulate"
         d="m 56.416648,115.81586 c 0.509465,0.98716 1.527304,1.60743 2.638186,1.60774 l 24.0014,-4e-5 c 2.285582,-6.2e-4 3.713831,-2.47472 2.571318,-4.45426 L 73.627058,92.183832 c -1.143069,-1.979219 -3.999856,-1.979383 -5.143151,-2.06e-4 L 56.483165,112.96943 c -0.505243,0.87567 -0.530306,1.94821 -0.06652,2.84652 z"
         id="path1121"
         inkscape:connector-curvature="0"
         sodipodi:nodetypes="cccccccc" />
    </g>
  </g>
</svg>
