<?xml version="1.0" encoding="UTF-8" standalone="no"?>
<!-- Created with Inkscape (http://www.inkscape.org/) -->

<svg
   xmlns:dc="http://purl.org/dc/elements/1.1/"
   xmlns:cc="http://creativecommons.org/ns#"
   xmlns:rdf="http://www.w3.org/1999/02/22-rdf-syntax-ns#"
   xmlns:svg="http://www.w3.org/2000/svg"
   xmlns="http://www.w3.org/2000/svg"
   xmlns:sodipodi="http://sodipodi.sourceforge.net/DTD/sodipodi-0.dtd"
   xmlns:inkscape="http://www.inkscape.org/namespaces/inkscape"
   width="42.378181mm"
   height="33.980007mm"
   viewBox="0 0 42.378181 33.980007"
   version="1.1"
   id="svg969"
   inkscape:version="0.92.2 (5c3e80d, 2017-08-06)"
   sodipodi:docname="Split_Bun.svg">
  <defs
     id="defs963" />
  <sodipodi:namedview
     id="base"
     pagecolor="#ffffff"
     bordercolor="#666666"
     borderopacity="1.0"
     inkscape:pageopacity="0.0"
     inkscape:pageshadow="2"
     inkscape:zoom="3.6203867"
     inkscape:cx="11.17251"
     inkscape:cy="61.26005"
     inkscape:document-units="mm"
     inkscape:current-layer="layer1"
     showgrid="false"
     fit-margin-top="0"
     fit-margin-left="0"
     fit-margin-right="0"
     fit-margin-bottom="0"
     inkscape:window-width="1920"
     inkscape:window-height="986"
     inkscape:window-x="-11"
     inkscape:window-y="-11"
     inkscape:window-maximized="1" />
  <metadata
     id="metadata966">
    <rdf:RDF>
      <cc:Work
         rdf:about="">
        <dc:format>image/svg+xml</dc:format>
        <dc:type
           rdf:resource="http://purl.org/dc/dcmitype/StillImage" />
        <dc:title />
      </cc:Work>
    </rdf:RDF>
  </metadata>
  <g
     inkscape:label="Layer 1"
     inkscape:groupmode="layer"
     id="layer1"
     transform="translate(15.897424,-143.93857)">
    <g
       id="g2877"
       transform="translate(2259.2368,598.91689)">
      <g
         aria-label="Split Bun"
         transform="scale(0.26458333)"
         style="font-style:normal;font-variant:normal;font-weight:normal;font-stretch:normal;font-size:40px;line-height:1.25;font-family:babas;-inkscape-font-specification:babas;text-align:end;letter-spacing:0px;word-spacing:0px;text-anchor:end;fill:#000000;fill-opacity:1;stroke:none"
         id="flowRoot2875">
        <path
           d="m -8582.1289,-1620.0419 1.7969,2.2656 1.0351,1.25 q 3.0078,3.7109 3.0078,7.8515 0,4.0235 -2.6562,7.0508 -3.6328,4.1602 -9.5117,4.1602 -4.5508,0 -7.461,-2.8125 -2.9101,-2.793 -2.9101,-7.168 0,-5.3515 4.5312,-8.9258 2.4024,-1.8945 4.4336,-1.8945 1.0547,0 1.7188,0.6055 0.664,0.6054 0.664,1.5625 0,1.289 -1.5234,2.2265 l -1.5625,0.9571 q -1.3477,0.8398 -2.2461,2.3437 -0.8984,1.5039 -0.8984,2.9688 0,2.3242 1.5625,3.8281 1.582,1.5234 4.0039,1.5234 2.6757,0 4.6484,-2.0117 1.9727,-1.9922 1.9727,-4.707 0,-1.7188 -0.8008,-3.125 -0.8008,-1.4063 -3.4571,-4.3555 -1.8554,-2.0508 -2.6562,-3.5937 h -5.2734 q -2.6954,0 -2.6954,-1.8555 0,-1.3477 0.9375,-2.0703 0.9571,-0.7422 2.6758,-0.7422 h 3.3399 q 0.3906,-3.8672 3.5351,-6.3867 3.1446,-2.5391 7.5391,-2.5391 3.3008,0 5.3711,1.8164 2.0898,1.8164 2.0898,4.707 0,3.8477 -3.3008,5.8985 -1.875,1.1719 -5.957,1.1719 z m -2.3438,-4.668 h 4.6875 q 3.9649,0 3.9649,-2.3047 0,-0.8984 -0.8203,-1.4453 -0.8008,-0.5469 -2.1485,-0.5469 -2.1093,0 -3.8476,1.3086 -1.7188,1.3086 -1.836,2.9883 z"
           style="font-style:normal;font-variant:normal;font-weight:normal;font-stretch:normal;font-family:'Harlow Solid Italic';-inkscape-font-specification:'Harlow Solid Italic, '"
           id="path822"
           inkscape:connector-curvature="0" />
        <path
           d="m -8568.3008,-1608.2255 -5.0976,12.539 q -1.0547,2.5977 -3.086,2.5977 -0.7812,0 -1.3281,-0.5274 -0.5664,-0.5078 -0.5664,-1.2304 0,-0.6055 0.4883,-1.836 l 9.414,-23.2031 q 0.7227,-1.7578 2.5,-1.7578 1.2305,0 1.9532,1.1719 1.3671,-1.4453 3.3398,-1.4453 2.0508,0 3.3008,1.5625 1.2695,1.5429 1.2695,4.082 0,4.8047 -2.9883,7.832 -0.9765,0.9961 -2.0117,1.3672 -1.0351,0.3711 -2.8906,0.3711 -1.9922,0 -2.7539,-0.2734 -0.7422,-0.2735 -1.543,-1.25 z m 1.6016,-3.9844 q 0.4883,0.8594 0.9179,1.1133 0.4493,0.2539 1.4063,0.2539 1.3867,0 2.168,-1.0352 1.582,-2.0898 1.582,-4.2969 0,-1.8945 -1.7969,-1.8945 -1.9726,0 -2.832,2.2852 -0.098,0.2539 -0.1563,0.4297 z"
           style="font-style:normal;font-variant:normal;font-weight:normal;font-stretch:normal;font-family:'Harlow Solid Italic';-inkscape-font-specification:'Harlow Solid Italic, '"
           id="path824"
           inkscape:connector-curvature="0" />
        <path
           d="m -8549.8047,-1610.9599 h 2.0508 q 2.4805,0 2.4805,1.7383 0,1.1914 -0.8789,1.8554 -0.8594,0.6641 -2.4219,0.6641 h -3.5156 q -1.4454,0 -2.2852,-0.6836 -0.8398,-0.6836 -0.8398,-1.8359 0,-0.6055 0.5664,-2.0117 l 7.8906,-19.4141 0.2148,-0.5274 q 0.8985,-2.1875 2.8711,-2.1875 0.8203,0 1.3867,0.5469 0.586,0.5469 0.586,1.3086 0,0.586 -0.293,1.3281 l -0.2148,0.5274 z"
           style="font-style:normal;font-variant:normal;font-weight:normal;font-stretch:normal;font-family:'Harlow Solid Italic';-inkscape-font-specification:'Harlow Solid Italic, '"
           id="path826"
           inkscape:connector-curvature="0" />
        <path
           d="m -8538.9844,-1610.9599 h 2.2071 q 2.4609,0 2.4609,1.7383 0,1.1914 -0.8789,1.8554 -0.8594,0.6641 -2.4219,0.6641 h -3.1055 q -1.7187,0 -2.7148,-0.7031 -0.9766,-0.7031 -0.9766,-1.9141 0,-0.6445 0.4102,-1.6406 l 3.2226,-7.9297 0.2149,-0.5469 q 0.8984,-2.207 2.8906,-2.207 0.8203,0 1.4063,0.5469 0.6054,0.5468 0.6054,1.3086 0,0.625 -0.5273,1.914 z m 2.5781,-16.9141 q 1.1329,0 1.9141,0.8008 0.8008,0.7813 0.8008,1.9141 0,1.1328 -0.8008,1.9336 -0.7812,0.7812 -1.9141,0.7812 -1.1328,0 -1.9335,-0.7812 -0.7813,-0.8008 -0.7813,-1.9336 0,-1.1328 0.7813,-1.9141 0.8007,-0.8008 1.9335,-0.8008 z"
           style="font-style:normal;font-variant:normal;font-weight:normal;font-stretch:normal;font-family:'Harlow Solid Italic';-inkscape-font-specification:'Harlow Solid Italic, '"
           id="path828"
           inkscape:connector-curvature="0" />
        <path
           d="m -8523.7891,-1621.6435 h 0.6055 q 2.4805,0 2.4805,1.7383 0,1.1914 -0.8789,1.8554 -0.8789,0.6641 -2.4219,0.6641 h -1.4258 l -2.6172,6.4258 h 2.1875 q 2.4805,0 2.4805,1.7383 0,1.1914 -0.8789,1.8554 -0.8594,0.6641 -2.4219,0.6641 h -3.4961 q -1.4844,0 -2.3633,-0.6836 -0.8593,-0.6836 -0.8593,-1.8555 0,-0.7226 0.3515,-1.6015 l 0.3711,-0.8594 2.3047,-5.6836 h -0.293 q -2.1875,0 -2.1875,-1.6992 0,-1.2109 0.8594,-1.875 0.8789,-0.6836 2.4414,-0.6836 h 0.8985 l 1.0351,-2.5586 0.2149,-0.5273 q 0.9179,-2.168 2.8906,-2.168 0.8008,0 1.3672,0.5469 0.5859,0.5273 0.5859,1.289 0,0.7422 -0.5078,1.875 z"
           style="font-style:normal;font-variant:normal;font-weight:normal;font-stretch:normal;font-family:'Harlow Solid Italic';-inkscape-font-specification:'Harlow Solid Italic, '"
           id="path830"
           inkscape:connector-curvature="0" />
        <path
           d="m -8491.9922,-1628.6943 h -2.207 -0.5274 q -2.1875,0 -2.1875,-1.875 0,-1.1719 0.8985,-1.9726 0.8984,-0.8204 2.1875,-0.8204 h 0.5273 7.9297 q 3.8477,0 5.9375,1.6993 2.0898,1.6797 2.0898,4.8047 0,2.6953 -1.582,4.8437 -1.5625,2.1484 -4.1992,3.0664 3.5742,1.7383 3.5742,5.9766 0,2.7148 -1.4844,5.332 -1.4648,2.5977 -3.8867,4.1602 -3.2617,2.1093 -9.8437,2.1093 h -2.8711 l -0.2344,0.5469 q -1.3672,3.0274 -2.1484,4.2774 -0.7813,1.25 -2.0118,2.3828 -3.2617,2.9882 -7.4414,2.9882 -3.4179,0 -5.6445,-2.0312 -2.2461,-2.0313 -2.2461,-5.1758 0,-2.0117 0.957,-3.75 0.9571,-1.7187 2.5977,-2.6758 2.1289,-1.2304 5.7813,-1.2304 h 6.8164 z m 2.4805,7.3242 1.1719,-0.019 q 2.7343,0 4.1406,-1.2695 0.7422,-0.6641 1.2304,-1.7188 0.5079,-1.0547 0.5079,-1.9531 0,-1.6211 -1.4258,-2.1484 -0.5664,-0.2149 -2.3438,-0.2149 h -0.2929 z m -6.211,15.3321 h 1.5821 q 4.1797,0 6.3476,-1.4453 1.3867,-0.918 2.2461,-2.5196 0.8789,-1.6015 0.8789,-3.2226 0,-1.9141 -1.1523,-2.6953 -1.1328,-0.7813 -3.9649,-0.7813 h -1.6211 z m -7.3828,4.6679 h -5.0781 q -3.8281,0 -3.8281,2.7344 0,1.0938 0.8203,1.8555 0.8398,0.7617 2.0312,0.7617 1.7774,0 3.3789,-1.4258 1.6016,-1.4062 2.6758,-3.9258 z"
           style="font-style:normal;font-variant:normal;font-weight:normal;font-stretch:normal;font-family:'Harlow Solid Italic';-inkscape-font-specification:'Harlow Solid Italic, '"
           id="path832"
           inkscape:connector-curvature="0" />
        <path
           d="m -8463.6133,-1610.9599 h 2.2656 q 1.3477,0 1.9141,0.4101 0.5664,0.3907 0.5664,1.3086 0,1.1914 -0.8789,1.875 -0.8594,0.6641 -2.4219,0.6641 h -3.4961 q -1.6406,0 -2.1875,-1.2695 -1.0742,1.2695 -2.6953,1.2695 h -2.8515 q -1.7188,0 -2.8516,-1.0742 -1.1328,-1.0742 -1.1328,-2.7149 0,-0.9375 0.5078,-2.1875 l 2.6562,-6.5234 q 1.1133,-2.7148 3.0469,-2.7148 0.8399,0 1.4258,0.5468 0.5859,0.5274 0.5859,1.3086 0,0.586 -0.3125,1.3477 l -0.2148,0.5273 -2.0508,5.0196 -0.2148,0.5859 q -0.1758,0.5078 -0.1953,0.7617 -0.039,0.8789 1.1328,0.8789 2.4218,0 3.2226,-1.9531 l 2.4414,-6.0156 q 1.0938,-2.7344 3.086,-2.7344 0.8203,0 1.4062,0.5469 0.586,0.5468 0.586,1.3086 0,0.6054 -0.5079,1.875 z"
           style="font-style:normal;font-variant:normal;font-weight:normal;font-stretch:normal;font-family:'Harlow Solid Italic';-inkscape-font-specification:'Harlow Solid Italic, '"
           id="path834"
           inkscape:connector-curvature="0" />
        <path
           d="m -8443.6914,-1610.9599 h 2.3437 q 2.4805,0 2.4805,1.7383 0,1.1914 -0.8789,1.8554 -0.8789,0.6641 -2.4219,0.6641 h -4.082 q -1.1914,0 -2.0117,-0.7227 -0.8008,-0.7226 -0.8008,-1.8164 0,-0.664 0.5469,-1.9921 l 1.7187,-4.2579 q 0.2735,-0.664 0.293,-1.0742 0.02,-0.4687 -0.3906,-0.8008 -0.3907,-0.332 -1.0157,-0.332 -2.0117,0 -3.2421,3.0274 l -2.3047,5.664 q -1.0352,2.5781 -3.086,2.5781 -0.8398,0 -1.4258,-0.5078 -0.5859,-0.5078 -0.5859,-1.25 0,-0.5468 0.3125,-1.3086 l 0.2149,-0.5273 3.9453,-9.7266 q 0.7617,-1.8945 2.5976,-1.8945 1.5039,0 2.1485,1.3281 2.0898,-1.6015 3.9843,-1.6015 1.836,0 3.0274,1.0546 1.1914,1.0547 1.1914,2.6758 0,0.8985 -0.4297,1.9727 z"
           style="font-style:normal;font-variant:normal;font-weight:normal;font-stretch:normal;font-family:'Harlow Solid Italic';-inkscape-font-specification:'Harlow Solid Italic, '"
           id="path836"
           inkscape:connector-curvature="0" />
      </g>
    </g>
    <path
       sodipodi:nodetypes="ccccccccsssccccccccccccccccccccccccc"
       style="fill:#000000;fill-rule:evenodd;stroke-width:0.64796758"
       d="m 5.6375557,143.94334 v 0 0 c -0.3614,-0.0113 -0.7232,-4.9e-4 -1.0876,0.0113 -11.6619003,0.40915 -20.7987007,6.19581 -20.4370007,17.85956 0,0.14154 0.1092,0.95536 0.4356,1.25865 0.396,0.36966 1.5678,0.42597 1.5678,0.42597 l 38.3438,-0.0434 0.861301,-0.15189 c 0.210601,-0.0371 0.692801,-0.3209 0.814099,-0.55491 0.137301,-0.26461 0.2765,-0.55863 0.298202,-0.87486 l 0.047,-0.69023 c -0.4431,-11.29605 -9.652201,-17.06837 -20.8300013,-17.24097 z m -1.0176,5.32422 c 0.71,-0.0376 1.3067,0.77244 1.3345,1.81099 v 0.0301 c 0,1.03851 -0.5451,1.90028 -1.2546,1.92772 -0.7093,0.0263 -1.3006,-0.78874 -1.3228,-1.82665 -0.038,-1.03802 0.5337,-1.90664 1.2429,-1.94327 z m -6.795,5.0304 v 0 c 0.7092,-0.0376 1.30479997,0.77361 1.33259997,1.81111 v 0.0301 c 0,1.03851 -0.54509997,1.90028 -1.25459997,1.92772 -0.7093,0.0264 -1.3006,-0.7887 -1.3228,-1.82661 -0.038,-1.03806 0.5337,-1.90675 1.2429,-1.94338 z m 13.6502993,0 c 0.7088,-0.0339 1.3043,0.77384 1.332201,1.81111 v 0.0301 c 0,1.03727 -0.5436,1.89847 -1.2524,1.92772 -0.7092,0.0264 -1.3006,-0.7887 -1.3228,-1.82661 -0.038,-1.03806 0.533799,-1.90675 1.242999,-1.94338 z"
       id="path2901"
       inkscape:connector-curvature="0" />
  </g>
</svg>
